<svg width="156" height="85" viewBox="0 0 156 85" fill="none" xmlns="http://www.w3.org/2000/svg">
<path d="M83.9488 37.6582V35.7246H79.9976V37.6582H83.9488Z" fill="black"/>
<path d="M77.1719 33.6558L74.9058 34.9996L76.6095 37.6584H79.7363L77.1719 33.6558Z" fill="black"/>
<path d="M73.2188 49.3026H89.0667C89.2491 49.303 89.3985 49.4466 89.3989 49.6231V55.5975H92.7268L92.7264 49.6231C92.7251 47.6777 91.0882 46.1033 89.0667 46.1021H73.3C73.3923 46.5242 73.4413 46.968 73.4401 47.4255C73.435 48.0255 73.3618 48.6474 73.2188 49.3026Z" fill="black"/>
<path d="M51.5442 49.6226C51.5447 49.4465 51.694 49.3029 51.8773 49.3025H55.1019C54.9597 48.6477 54.8865 48.027 54.8818 47.4283C54.8806 46.9691 54.9297 46.5246 55.0215 46.1016H51.8773C49.8549 46.1028 48.2181 47.6772 48.2168 49.6226V55.5975H51.5442V49.6226Z" fill="black"/>
<path d="M68.3029 46.9909C68.2957 46.9865 68.2885 46.9816 68.2801 46.9763L68.2699 46.9698L68.2602 46.9633C68.1751 46.9124 67.7816 46.8112 67.3525 46.8112L67.3021 46.8116H67.2797C66.9145 46.8116 66.5759 46.8616 66.5053 46.875C66.3326 46.9096 66.1582 46.9271 65.986 46.9271C65.292 46.9271 64.6327 46.646 64.1613 46.1763C63.6894 46.646 63.0297 46.9271 62.3357 46.9271C62.1626 46.9271 61.9887 46.9096 61.8186 46.8758L61.816 46.8754L61.7978 46.8722C61.7652 46.8665 61.7094 46.8579 61.6358 46.849C61.4982 46.8319 61.2786 46.8116 61.037 46.8116H60.9997C60.6273 46.8116 60.2994 46.8722 60.1512 46.9287C60.0717 46.9608 60.0345 46.9804 60.0192 46.9893C60.0188 46.9901 60.0184 46.9909 60.0179 46.9918C59.9786 47.0755 59.9562 47.2289 59.9549 47.4261C59.9477 47.8276 60.067 48.4609 60.3654 49.3024H67.9559C68.2538 48.4617 68.3732 47.8308 68.3651 47.4335C68.3651 47.2297 68.3418 47.0723 68.3029 46.9909Z" fill="black"/>
<mask id="mask0_123_92" style="mask-type:luminance" maskUnits="userSpaceOnUse" x="55" y="32" width="19" height="24">
<path d="M55.3584 32.0698H73.0167V55.6576H55.3584V32.0698Z" fill="white"/>
</mask>
<g mask="url(#mask0_123_92)">
<path d="M59.8589 45.1716C60.1208 45.5019 60.5165 45.6752 60.9172 45.6752C61.1991 45.6752 61.483 45.5893 61.7247 45.412C62.3091 44.9825 62.4208 44.1792 61.9743 43.6175C59.9638 41.0836 59.4192 39.2106 59.4192 37.8997C59.423 36.6836 59.8745 35.8551 60.3523 35.2678L60.6532 35.4171C60.0506 36.1386 59.7552 36.9517 59.7514 37.9014C59.7526 39.4856 60.5888 41.3439 62.2388 43.4231C62.5084 43.7623 62.6248 44.1829 62.5655 44.6067C62.5067 45.0305 62.2799 45.4067 61.9265 45.6666C61.6337 45.8814 61.2845 45.9949 60.9172 45.9949C60.3938 45.9949 59.9113 45.7655 59.594 45.3661C58.9685 44.5794 58.4366 43.805 57.9956 43.0436C57.861 43.1091 57.7269 43.1803 57.5919 43.2596C56.972 43.6305 56.3753 44.1971 55.9766 44.9284C55.5738 45.6585 55.3787 46.5155 55.3804 47.4245C55.3969 49.3654 56.1624 51.5988 57.8877 54.6342C58.2588 55.2829 58.9558 55.6494 59.6748 55.6494C60.007 55.6494 60.3442 55.5709 60.6566 55.4057C61.6421 54.8831 62.001 53.6906 61.4585 52.7421C59.891 50.0288 59.4399 48.2595 59.4568 47.4241C59.4581 47.0271 59.533 46.8494 59.5796 46.7619C59.6511 46.6456 59.7019 46.5891 59.9676 46.4817C60.2215 46.3853 60.6439 46.3284 61.0302 46.3312C61.2922 46.3308 61.5363 46.3524 61.7018 46.3727C61.7847 46.3833 61.8482 46.393 61.885 46.3991C61.8956 46.4008 61.9041 46.4024 61.9104 46.4032V46.4036C61.9202 46.4052 61.9202 46.4052 61.9202 46.4052C62.8482 46.5911 63.7601 46.1352 64.1609 45.3518C64.5621 46.1352 65.4736 46.5907 66.402 46.4048C66.402 46.4048 66.402 46.4048 66.4088 46.4036C66.471 46.3918 66.8536 46.33 67.2924 46.3308C67.8133 46.3206 68.3715 46.4447 68.5573 46.5761C68.6588 46.6416 68.691 46.6753 68.7422 46.7619C68.7887 46.849 68.8632 47.0267 68.8645 47.4237C68.8814 48.2591 68.4299 50.0284 66.8637 52.7421C66.3208 53.6902 66.6801 54.8827 67.6661 55.4049C67.9779 55.5701 68.3148 55.6486 68.6474 55.6486C69.3664 55.6486 70.0634 55.2821 70.4349 54.6334C72.1589 51.5975 72.9245 49.365 72.941 47.4237C72.9427 46.5151 72.748 45.6581 72.3456 44.9284C71.8576 44.0304 71.0908 43.4133 70.3295 43.0392C69.8877 43.8018 69.3554 44.5774 68.7282 45.3652C68.4109 45.7651 67.9289 45.9944 67.4054 45.9944C67.0381 45.9944 66.6885 45.881 66.3961 45.6658C66.0428 45.4059 65.8155 45.0301 65.7571 44.6059C65.6979 44.1825 65.8142 43.7623 66.0838 43.4227C67.7338 41.3431 68.57 39.4848 68.5708 37.9005C68.5674 36.9508 68.272 36.1382 67.6694 35.4162L67.9699 35.2674C68.4481 35.8547 68.8996 36.6832 68.9034 37.8993C68.903 39.2102 68.3588 41.0828 66.3483 43.6167C65.9018 44.1784 66.014 44.9821 66.598 45.4116C66.8392 45.5889 67.1235 45.6748 67.4054 45.6748C67.8057 45.6748 68.2022 45.5015 68.4637 45.1712C70.7129 42.3437 71.5656 39.92 71.5652 37.8993C71.5686 36.2801 71.0075 34.9937 70.3651 34.0806C70.2419 33.9057 70.1167 33.7434 69.991 33.5965C69.2056 32.6741 68.4413 32.243 68.3499 32.1897V32.1901C68.3101 32.1677 68.2691 32.1478 68.2276 32.1299C68.1032 33.9301 66.7109 35.4012 64.9036 35.7225L65.7419 41.6644L64.1613 43.585L62.5807 41.6644L63.4191 35.7225C61.6121 35.4012 60.2198 33.9301 60.095 32.1299C60.0539 32.1478 60.0129 32.1677 59.9727 32.1901V32.1897C59.8809 32.243 59.117 32.6741 58.3316 33.5965C58.2064 33.7434 58.0807 33.9057 57.9575 34.0806C57.3147 34.9937 56.754 36.2801 56.7574 37.8993C56.7566 39.9204 57.6093 42.3445 59.8589 45.1716Z" fill="black"/>
</g>
<path d="M67.9048 31.8683C67.9048 31.9863 67.8984 32.1038 67.8866 32.2214C67.8747 32.3389 67.8565 32.4553 67.8328 32.5708C67.8087 32.6867 67.7791 32.801 67.7435 32.9136C67.708 33.0267 67.6665 33.1373 67.6195 33.2463C67.5726 33.3553 67.5205 33.4619 67.4625 33.566C67.4046 33.6697 67.3419 33.771 67.2738 33.869C67.2057 33.9671 67.1325 34.0614 67.055 34.1529C66.9771 34.244 66.8946 34.3311 66.8083 34.4145C66.7215 34.4978 66.6306 34.5772 66.5358 34.652C66.441 34.7268 66.3428 34.7968 66.2408 34.8623C66.1388 34.9278 66.0339 34.9884 65.9256 35.0441C65.8176 35.0998 65.7068 35.1498 65.5938 35.195C65.4804 35.2401 65.3653 35.28 65.2476 35.3141C65.1304 35.3483 65.0115 35.3772 64.8913 35.4C64.7711 35.4232 64.6501 35.4402 64.5282 35.452C64.4059 35.4634 64.2836 35.4691 64.1609 35.4691C64.0386 35.4691 63.9163 35.4634 63.794 35.452C63.6721 35.4402 63.5511 35.4232 63.4309 35.4C63.3107 35.3772 63.1918 35.3483 63.0746 35.3141C62.957 35.28 62.8419 35.2401 62.7285 35.195C62.6155 35.1498 62.5046 35.0998 62.3963 35.0441C62.2883 34.9884 62.1834 34.9278 62.0814 34.8623C61.9794 34.7968 61.8813 34.7268 61.7865 34.652C61.6917 34.5772 61.6007 34.4978 61.5139 34.4145C61.4272 34.3311 61.3451 34.244 61.2672 34.1529C61.1898 34.0614 61.1166 33.9671 61.0484 33.869C60.9803 33.771 60.9173 33.6697 60.8597 33.566C60.8017 33.4619 60.7497 33.3553 60.7027 33.2463C60.6557 33.1373 60.6143 33.0267 60.5787 32.9136C60.5432 32.801 60.5135 32.6867 60.4894 32.5708C60.4657 32.4553 60.4475 32.3389 60.4357 32.2214C60.4238 32.1038 60.4175 31.9863 60.4175 31.8683C60.4175 31.7504 60.4238 31.6328 60.4357 31.5153C60.4475 31.3982 60.4657 31.2814 60.4894 31.1659C60.5135 31.0504 60.5432 30.9361 60.5787 30.8231C60.6143 30.7104 60.6557 30.5994 60.7027 30.4903C60.7497 30.3813 60.8017 30.2752 60.8597 30.1711C60.9173 30.0669 60.9803 29.9661 61.0484 29.8681C61.1166 29.77 61.1898 29.6753 61.2672 29.5842C61.3451 29.4931 61.4272 29.4056 61.5139 29.3222C61.6007 29.2388 61.6917 29.1599 61.7865 29.0851C61.8813 29.0103 61.9794 28.9399 62.0814 28.8744C62.1834 28.8089 62.2883 28.7483 62.3963 28.6926C62.5046 28.6373 62.6155 28.5869 62.7285 28.5417C62.8419 28.4966 62.957 28.4567 63.0746 28.4225C63.1918 28.3884 63.3107 28.3599 63.4309 28.3367C63.5511 28.3139 63.6721 28.2965 63.794 28.2851C63.9163 28.2733 64.0386 28.2676 64.1609 28.2676C64.2836 28.2676 64.4059 28.2733 64.5282 28.2851C64.6501 28.2965 64.7711 28.3139 64.8913 28.3367C65.0115 28.3599 65.1304 28.3884 65.2476 28.4225C65.3653 28.4567 65.4804 28.4966 65.5938 28.5417C65.7068 28.5869 65.8176 28.6373 65.9256 28.6926C66.0339 28.7483 66.1388 28.8089 66.2408 28.8744C66.3428 28.9399 66.441 29.0103 66.5358 29.0851C66.6306 29.1599 66.7215 29.2388 66.8083 29.3222C66.8946 29.4056 66.9771 29.4931 67.055 29.5842C67.1325 29.6753 67.2057 29.77 67.2738 29.8681C67.3419 29.9661 67.4046 30.0669 67.4625 30.1711C67.5205 30.2752 67.5726 30.3813 67.6195 30.4903C67.6665 30.5994 67.708 30.7104 67.7435 30.8231C67.7791 30.9361 67.8087 31.0504 67.8328 31.1659C67.8565 31.2814 67.8747 31.3982 67.8866 31.5153C67.8984 31.6328 67.9048 31.7504 67.9048 31.8683Z" fill="black"/>
<path d="M62.2728 26.6234C62.126 26.7987 62.346 27.0798 62.492 26.9045C62.9008 26.416 63.079 25.7091 62.9444 25.0156C62.8098 24.325 62.2982 23.9927 62.5745 23.2053C62.682 22.899 62.8915 22.6115 63.1039 22.415C63.2652 22.2666 63.1099 21.9208 62.9474 22.0713C62.5415 22.4463 62.2347 22.9808 62.1687 23.6242C62.0972 24.3173 62.6291 24.7622 62.6892 25.4134C62.7294 25.8515 62.5166 26.3314 62.2728 26.6234Z" fill="black"/>
<path d="M64.0917 26.6234C63.9452 26.7987 64.1653 27.0798 64.3109 26.9045C64.7196 26.416 64.8978 25.7091 64.7632 25.0156C64.6291 24.325 64.117 23.9927 64.3938 23.2053C64.5013 22.899 64.7103 22.6115 64.9228 22.415C65.084 22.2666 64.9291 21.9208 64.7662 22.0713C64.3604 22.4463 64.0536 22.9808 63.9876 23.6242C63.916 24.3173 64.4484 24.7622 64.5081 25.4134C64.5483 25.8515 64.3354 26.3314 64.0917 26.6234Z" fill="black"/>
<path d="M65.91 26.6234C65.7636 26.7987 65.9836 27.0798 66.1296 26.9045C66.538 26.416 66.7162 25.7091 66.5816 25.0156C66.4474 24.325 65.9354 23.9927 66.2122 23.2053C66.3196 22.899 66.5291 22.6115 66.7411 22.415C66.9024 22.2666 66.7475 21.9208 66.5846 22.0713C66.1787 22.4463 65.8724 22.9808 65.8059 23.6242C65.7344 24.3173 66.2668 24.7622 66.3264 25.4134C66.367 25.8515 66.1538 26.3314 65.91 26.6234Z" fill="black"/>
<path d="M76.3094 38.4125V45.1801H84.4619V38.4129L86.5312 41.1921L86.8017 41.0058L84.5474 37.9785H76.2235L73.9692 41.0058L74.2401 41.1925L76.3094 38.4125Z" fill="black"/>
</svg>
