<svg xmlns="http://www.w3.org/2000/svg" xmlns:xlink="http://www.w3.org/1999/xlink" width="1000" zoomAndPan="magnify" viewBox="0 0 750 749.999995" height="1000" preserveAspectRatio="xMidYMid meet" version="1.0"><defs><clipPath id="d4862e1c69"><path d="M 296.335938 346.574219 L 352.332031 346.574219 L 352.332031 374.773438 L 296.335938 374.773438 Z M 296.335938 346.574219 " clip-rule="nonzero"/></clipPath></defs><path fill="#484c54" d="M 244.523438 353.320312 L 231.523438 353.320312 L 231.523438 336.917969 C 231.523438 332.410156 233.988281 329.675781 237.683594 329.675781 L 244.25 329.675781 L 244.25 316.007812 C 242.882812 315.050781 239.1875 314.367188 235.492188 314.367188 C 223.863281 314.367188 214.015625 323.25 214.015625 334.871094 L 214.015625 353.320312 L 204.847656 353.320312 L 204.847656 366.851562 L 214.015625 366.851562 L 214.015625 407.992188 L 231.523438 407.992188 L 231.523438 366.851562 L 244.523438 366.851562 Z M 244.523438 353.320312 " fill-opacity="1" fill-rule="nonzero"/><path fill="#484c54" d="M 285.417969 352.226562 C 278.988281 352.226562 273.652344 355.507812 270.097656 360.839844 L 270.097656 353.320312 L 252.582031 353.320312 L 252.582031 407.992188 L 270.097656 407.992188 L 270.097656 381.886719 C 270.097656 372.867188 276.253906 367.671875 284.871094 367.671875 C 286.925781 367.671875 288.703125 367.945312 289.933594 368.21875 L 289.933594 352.773438 C 288.703125 352.363281 287.0625 352.226562 285.417969 352.226562 Z M 285.417969 352.226562 " fill-opacity="1" fill-rule="nonzero"/><path fill="#484c54" d="M 324.398438 409.085938 C 342.734375 409.085938 354.773438 397.058594 354.773438 380.65625 C 354.773438 364.253906 342.734375 352.226562 324.398438 352.226562 C 306.066406 352.226562 293.890625 364.253906 293.890625 380.65625 C 293.890625 397.058594 306.066406 409.085938 324.398438 409.085938 Z M 324.398438 393.640625 C 316.875 393.503906 311.402344 388.039062 311.402344 380.65625 C 311.402344 373.277344 316.875 367.808594 324.398438 367.671875 C 331.789062 367.808594 337.398438 373.277344 337.398438 380.65625 C 337.398438 388.039062 331.789062 393.503906 324.398438 393.640625 Z M 324.398438 393.640625 " fill-opacity="1" fill-rule="nonzero"/><path fill="#484c54" d="M 384.851562 409.085938 C 397.167969 409.085938 404.691406 401.570312 404.691406 391.320312 C 404.691406 380.382812 395.660156 376.007812 387.863281 373.003906 C 383.894531 371.363281 381.980469 370.542969 381.980469 368.492188 C 381.980469 366.714844 383.347656 365.351562 386.359375 365.351562 C 389.914062 365.351562 393.199219 367.261719 394.839844 369.3125 L 403.597656 359.472656 C 399.492188 355.371094 392.789062 352.226562 385.125 352.226562 C 372.675781 352.226562 364.742188 360.429688 364.742188 369.722656 C 364.742188 380.65625 375.6875 384.347656 381.980469 386.671875 C 386.90625 388.585938 388.546875 389.953125 388.546875 391.863281 C 388.546875 394.050781 386.632812 395.28125 383.757812 395.28125 C 380.886719 395.28125 377.054688 394.1875 374.589844 389.542969 L 361.730469 395.964844 C 365.015625 404.441406 375.140625 409.085938 384.851562 409.085938 Z M 384.851562 409.085938 " fill-opacity="1" fill-rule="nonzero"/><path fill="#484c54" d="M 475.550781 407.992188 L 449.554688 378.0625 L 473.496094 353.320312 L 452.5625 353.320312 L 433.546875 373.003906 L 433.546875 314.367188 L 416.171875 314.367188 L 416.171875 407.992188 L 433.546875 407.992188 L 433.546875 382.84375 L 452.835938 407.992188 Z M 475.550781 407.992188 " fill-opacity="1" fill-rule="nonzero"/><path fill="#484c54" d="M 542.160156 393.777344 C 539.835938 393.777344 537.371094 392.957031 537.371094 388.449219 L 537.371094 353.320312 L 519.996094 353.320312 L 519.996094 358.105469 C 515.890625 354.414062 510.691406 352.226562 504.398438 352.226562 C 489.210938 352.226562 477.308594 364.800781 477.308594 380.65625 C 477.308594 396.511719 489.210938 409.085938 504.398438 409.085938 C 512.335938 409.085938 518.765625 405.535156 523.144531 399.792969 C 526.5625 405.398438 532.582031 409.085938 539.972656 409.085938 C 541.75 409.085938 543.390625 408.539062 544.621094 407.992188 L 544.621094 393.777344 Z M 507.820312 393.640625 C 500.566406 393.640625 494.820312 387.902344 494.820312 380.65625 C 494.820312 373.414062 500.566406 367.671875 507.820312 367.671875 C 514.933594 367.671875 520.816406 373.414062 520.816406 380.65625 C 520.816406 387.902344 514.933594 393.640625 507.820312 393.640625 Z M 507.820312 393.640625 " fill-opacity="1" fill-rule="nonzero"/><g clip-path="url(#d4862e1c69)"><path fill="#484c54" d="M 350.0625 373.320312 L 351.90625 369.199219 L 348.460938 371.039062 C 353.4375 363.207031 348.769531 346.628906 348.769531 346.628906 C 344.269531 349.828125 331.152344 362.253906 331.050781 362.289062 C 328.800781 361.816406 326.53125 361.566406 324.234375 361.539062 C 321.9375 361.578125 319.667969 361.828125 317.417969 362.289062 C 317.316406 362.253906 304.195312 349.828125 299.699219 346.628906 C 299.699219 346.628906 295.027344 363.207031 300.003906 371.039062 L 296.527344 369.164062 L 298.367188 373.285156 L 296.425781 372.332031 L 297.617188 374.816406 L 301.539062 374.816406 C 306.820312 368.722656 315 364.742188 324.199219 364.570312 C 333.398438 364.742188 341.613281 368.722656 346.894531 374.816406 L 350.8125 374.816406 L 352.007812 372.332031 Z M 310.363281 362.9375 L 308.457031 362.96875 L 310.125 364.636719 L 310.089844 364.636719 C 307.367188 365.914062 304.855469 367.527344 302.558594 369.472656 C 302.492188 369.507812 302.457031 369.574219 302.390625 369.609375 C 299.800781 365.386719 300.414062 357.113281 301.402344 351.632812 C 304.296875 354.085938 307.773438 357.285156 310.773438 360.109375 L 306.546875 358.441406 Z M 346.007812 369.609375 C 345.976562 369.574219 345.90625 369.539062 345.839844 369.472656 C 343.550781 367.527344 341.039062 365.925781 338.308594 364.671875 L 338.273438 364.671875 L 339.941406 363.003906 L 338.035156 362.96875 L 341.785156 358.476562 L 337.558594 360.144531 C 340.554688 357.320312 344.03125 354.117188 346.929688 351.667969 C 347.984375 357.113281 348.597656 365.351562 346.007812 369.609375 Z M 346.007812 369.609375 " fill-opacity="1" fill-rule="nonzero"/></g></svg>