<svg width="190" height="42" viewBox="0 0 190 42" fill="none" xmlns="http://www.w3.org/2000/svg">
<ellipse cx="169.5" cy="21" rx="20.5" ry="21" fill="#FF0404"/>
<circle cx="95" cy="21" r="21" fill="#FF0404"/>
<ellipse cx="20.5" cy="21" rx="20.5" ry="21" fill="#FF0404"/>
<g clip-path="url(#clip0_122_789)">
<path d="M13 29.9878L18.8871 21.9931L13.008 12.0259C14.2378 12.0259 15.3777 12.0807 16.5111 12.0046C17.191 11.959 17.5807 12.2192 17.9458 12.8807C18.9405 14.671 20.0062 16.4112 21.0448 18.1662C21.1341 18.3167 21.2265 18.4654 21.3421 18.6531C22.03 17.724 22.6971 16.8265 23.3611 15.9253C24.2522 14.7175 25.1353 13.4985 26.0392 12.3019C26.1516 12.1541 26.3668 12.0659 26.543 12.038C26.8164 11.9943 27.1009 12.0259 27.4612 12.0259C27.3544 12.1941 27.2882 12.313 27.2093 12.4199C25.5211 14.7073 23.83 16.9925 22.136 19.2755C21.9439 19.5329 21.9399 19.6936 22.1089 19.977C23.9767 23.1154 25.8365 26.261 27.6883 29.4137C27.784 29.5763 27.8757 29.7426 28.0016 29.9637C27.8207 29.9739 27.6947 29.9888 27.568 29.9888C26.3859 29.9888 25.2039 29.9767 24.0218 29.9999C23.7198 30.0055 23.5436 29.8986 23.3738 29.6088C22.1439 27.4979 20.9029 25.3991 19.6611 23.2957C19.6013 23.1953 19.5375 23.0987 19.4443 22.951L17.5433 25.5236C16.5143 26.9172 15.4908 28.3248 14.4491 29.7091C14.3367 29.8578 14.1231 29.9479 13.9461 29.9767C13.6735 30.0241 13.393 29.9878 13 29.9878ZM26.1357 28.8571C26.0289 28.6527 25.9683 28.5217 25.8965 28.4C25.2732 27.3427 24.6483 26.2858 24.0218 25.2291C21.7284 21.3437 19.4342 17.4604 17.1392 13.5793C17.0467 13.4233 16.9128 13.1975 16.7901 13.1891C16.1763 13.1483 15.5602 13.1706 14.9321 13.1706C14.9377 13.2239 14.9486 13.2763 14.9648 13.3266C17.9713 18.4205 20.9797 23.5143 23.99 28.6082C24.0513 28.7122 24.1637 28.8432 24.2554 28.8469C24.8596 28.8683 25.4645 28.8571 26.1357 28.8571Z" fill="white"/>
</g>
<g clip-path="url(#clip1_122_789)">
<path d="M101.008 25.3108C100.861 25.1995 100.762 25.0906 100.637 25.0418C100.557 25.0098 100.425 25.0418 100.332 25.0822C99.1598 25.5744 97.9197 25.9044 96.6495 26.0621C94.2575 26.3555 91.9548 26.0141 89.7399 25.1119C89.3842 24.9671 89.2957 24.9907 89.0223 25.3298C89.0931 25.3778 89.1665 25.422 89.2423 25.4624C89.7072 25.6758 90.1696 25.8952 90.6416 26.0918C90.8139 26.1635 90.8386 26.2305 90.7445 26.3746C90.416 26.8775 90.0904 27.3822 89.7678 27.8887C89.6976 27.9984 89.6179 28.0213 89.4879 27.9816C87.6028 27.4109 85.8275 26.5505 84.2319 25.4342C84.1482 25.3691 84.0937 25.2759 84.0796 25.1736C83.8404 22.5919 84.1354 20.0658 85.0547 17.6167C85.6075 16.1567 86.3457 14.767 87.253 13.479C87.3826 13.3069 87.5643 13.1769 87.7736 13.1064C88.6363 12.8267 89.5086 12.573 90.3833 12.3261C90.8131 12.2041 91.2556 12.1264 91.6893 12.0167C91.8536 11.9748 91.9365 12.022 92.0083 12.1622C92.1326 12.4221 92.2849 12.6697 92.3998 12.9334C92.4659 13.0858 92.5504 13.1117 92.7067 13.0904C93.789 12.941 94.8846 12.8997 95.9758 12.9669C96.4311 12.9966 96.8847 13.0431 97.3376 13.0957C97.3904 13.1096 97.4467 13.1031 97.4945 13.0775C97.5422 13.052 97.5776 13.0095 97.5928 12.9593C97.7251 12.6796 97.8782 12.4084 98.017 12.1318C98.0752 12.0159 98.1501 11.9794 98.2841 12.0129C99.5423 12.355 100.801 12.6911 102.059 13.0325C102.435 13.1346 102.697 13.3571 102.907 13.6809C104.177 15.6012 105.13 17.6434 105.618 19.8761C105.995 21.615 106.098 23.3981 105.921 25.166C105.906 25.2736 105.849 25.3719 105.761 25.4411C104.187 26.5394 102.44 27.3904 100.584 27.9618C100.391 28.022 100.285 27.99 100.186 27.8269C99.8803 27.3362 99.5662 26.85 99.2504 26.3646C99.1611 26.2267 99.1898 26.1635 99.3493 26.0957C99.8277 25.8937 100.297 25.6727 100.769 25.4563C100.851 25.4117 100.931 25.3631 101.008 25.3108ZM89.3332 20.8019C89.4129 21.0976 89.448 21.4116 89.5676 21.6874C89.8602 22.3686 90.3785 22.8205 91.1695 22.9043C91.895 22.9805 92.4819 22.6895 92.8845 22.124C93.4522 21.3262 93.4977 20.4712 92.9978 19.633C92.2841 18.4374 90.66 18.3612 89.8204 19.4677C89.5206 19.8586 89.3795 20.3059 89.3332 20.8019ZM100.621 20.9002C100.621 20.3775 100.505 19.9691 100.285 19.6155C99.5678 18.4618 97.9914 18.3673 97.1399 19.4257C96.4374 20.2998 96.5387 21.6424 97.3663 22.4106C97.7007 22.7312 98.1537 22.9133 98.6274 22.9174C99.101 22.9216 99.5574 22.7474 99.8979 22.4327C100.121 22.2373 100.3 22.0008 100.424 21.7374C100.548 21.474 100.615 21.1892 100.621 20.9002Z" fill="white"/>
</g>
<path d="M167.882 23.8729C167.889 23.4277 168.043 23.0874 168.329 22.8037C170.144 21.006 171.958 19.2073 173.772 17.4078C173.794 17.3856 173.816 17.3631 173.839 17.3421C173.953 17.2363 174.008 17.113 173.905 16.9744C173.793 16.8262 173.664 16.8598 173.528 16.9496C172.289 17.7683 171.048 18.5857 169.807 19.4018C168.265 20.4183 166.722 21.4353 165.181 22.4528C164.829 22.685 164.461 22.7705 164.048 22.6876C162.627 22.402 161.204 22.1248 159.782 21.8403C159.302 21.7456 158.926 21.106 159.012 20.5397C159.089 20.0353 159.372 19.7107 159.83 19.5198C163.811 17.832 167.79 16.1414 171.768 14.4481C173.59 13.6729 175.422 12.9123 177.237 12.1188C178.244 11.6777 179.126 12.5388 178.985 13.4862C178.634 15.8426 178.333 18.207 178.012 20.5684C177.66 23.1675 177.308 25.7674 176.956 28.368C176.938 28.5002 176.922 28.6331 176.893 28.7629C176.851 28.9591 176.762 29.1416 176.635 29.2945C176.508 29.4473 176.346 29.5658 176.164 29.6397C175.982 29.7135 175.785 29.7404 175.591 29.7179C175.396 29.6955 175.21 29.6244 175.049 29.5109C172.877 28.0179 170.704 26.5264 168.531 25.0364C168.112 24.7512 167.897 24.354 167.882 23.8729Z" fill="white"/>
<defs>
<clipPath id="clip0_122_789">
<rect width="15" height="18" fill="white" transform="translate(13 12)"/>
</clipPath>
<clipPath id="clip1_122_789">
<rect width="22" height="16" fill="white" transform="translate(84 12)"/>
</clipPath>
</defs>
</svg>
