<svg width="34" height="19" viewBox="0 0 34 19" fill="none" xmlns="http://www.w3.org/2000/svg">
<path d="M22.6691 17.3189C27.8071 15.9445 34.0001 9.92119 34.0001 9.92119C34.0001 9.92119 30.1909 5.29764 26.9236 3.36807C22.5367 0.777291 19.3105 -0.395607 14.1745 0.118321C7.68027 0.768162 0.000154915 8.77223 0.000154915 8.77223C0.000154915 8.77223 4.10532 14.1988 7.90924 16.0963C13.037 18.6542 17.0782 18.8144 22.6691 17.3189Z" fill="#A30000"/>
<path d="M13.9293 7.90695C12.79 10.8325 13.9897 15.9108 13.9897 15.9108C13.9897 15.9108 19.1944 13.1147 20.5724 9.99466C21.9267 6.92805 20.508 1.45722 20.508 1.45722C20.508 1.45722 15.2183 4.59709 13.9293 7.90695Z" fill="white"/>
</svg>
