<svg width="22" height="21" viewBox="0 0 22 21" fill="none" xmlns="http://www.w3.org/2000/svg">
<path d="M10.9918 14.5814H11.001M11 11.5117V7.4186M4.1664 8.11741C6.63622 3.74715 7.87111 1.56201 9.56571 0.999524C10.4979 0.690081 11.5021 0.690081 12.4343 0.999524C14.1289 1.56201 15.3638 3.74715 17.8336 8.11741C20.3034 12.4876 21.5383 14.6728 21.1679 16.4533C20.9641 17.4328 20.4619 18.3212 19.7335 18.9913C18.4094 20.2093 15.9397 20.2093 11 20.2093C6.06039 20.2093 3.59058 20.2093 2.26647 18.9913C1.53804 18.3212 1.03594 17.4328 0.832136 16.4533C0.461686 14.6728 1.69659 12.4876 4.1664 8.11741Z" stroke="#E30300" stroke-width="1.5" stroke-linecap="round"/>
</svg>
