<svg width="345" height="163" viewBox="0 0 345 163" fill="none" xmlns="http://www.w3.org/2000/svg">
<g clip-path="url(#clip0_87_1340)">
<mask id="mask0_87_1340" style="mask-type:luminance" maskUnits="userSpaceOnUse" x="-67" y="-28" width="496" height="208">
<path d="M428.705 -27.1667H-66.7378V179.331H428.705V-27.1667Z" fill="white"/>
</mask>
<g mask="url(#mask0_87_1340)">
<path d="M285.425 286.049C347.766 223.733 347.766 122.697 285.425 60.38C223.083 -1.9369 122.008 -1.93689 59.6666 60.38C-2.67475 122.697 -2.67476 223.733 59.6666 286.049C122.008 348.366 223.083 348.366 285.425 286.049Z" fill="url(#paint0_linear_87_1340)"/>
<path d="M274.332 274.961C330.547 218.768 330.547 127.661 274.332 71.4685C218.117 15.2756 126.974 15.2756 70.7593 71.4685C14.5444 127.661 14.5444 218.768 70.7593 274.961C126.974 331.154 218.117 331.154 274.332 274.961Z" fill="url(#paint1_linear_87_1340)"/>
<path d="M313.374 173.204C313.38 201.048 305.125 228.269 289.654 251.423C274.183 274.578 252.19 292.626 226.457 303.285C200.725 313.945 172.407 316.737 145.087 311.308C117.766 305.88 92.6699 292.475 72.9714 272.788C53.2729 253.101 39.8571 228.018 34.4207 200.709C28.9843 173.401 31.7714 145.094 42.4297 119.369C53.088 93.6435 71.1386 71.6556 94.2987 56.1857C117.459 40.7158 144.688 32.4587 172.543 32.4587C209.889 32.4587 245.705 47.2863 272.115 73.6803C298.525 100.074 313.366 135.874 313.374 173.204Z" fill="url(#paint2_radial_87_1340)"/>
<g style="mix-blend-mode:multiply">
<path d="M275.02 76.6709L172.543 173.204L307.469 132.763C301.173 111.794 290.061 92.5853 275.02 76.6709Z" fill="url(#paint3_radial_87_1340)"/>
<path d="M37.6475 132.763L172.558 173.204L70.0666 76.6709C55.0405 92.5917 43.9396 111.799 37.6475 132.763Z" fill="url(#paint4_radial_87_1340)"/>
<path d="M172.543 32.4587C161.633 32.4504 150.758 33.711 140.139 36.2151L172.543 173.219L204.962 36.1853C194.336 33.6989 183.457 32.4485 172.543 32.4587Z" fill="url(#paint5_radial_87_1340)"/>
</g>
<path d="M168.785 71.0214H178.582V73.794H170.918V75.6871H168.785V71.0214Z" fill="#FDEF9A"/>
<path d="M178.18 67.4737C177.751 68.1309 177.139 68.6489 176.42 68.9643C175.557 69.346 174.62 69.5343 173.677 69.5159C172.737 69.534 171.806 69.3458 170.948 68.9643C170.229 68.6489 169.617 68.1309 169.188 67.4737C168.795 66.7939 168.589 66.0227 168.589 65.2378C168.589 64.4528 168.795 63.6816 169.188 63.0018C169.617 62.3446 170.229 61.8266 170.948 61.5112C171.806 61.1298 172.737 60.9415 173.677 60.9596C174.62 60.9412 175.557 61.1295 176.42 61.5112C177.139 61.8266 177.751 62.3446 178.18 63.0018C178.573 63.6816 178.779 64.4528 178.779 65.2378C178.779 66.0227 178.573 66.7939 178.18 67.4737ZM175.839 64.1198C174.456 63.5635 172.912 63.5635 171.529 64.1198C171.326 64.2279 171.157 64.389 171.039 64.5859C170.921 64.7828 170.858 65.0081 170.858 65.2378C170.858 65.4674 170.921 65.6927 171.039 65.8896C171.157 66.0866 171.326 66.2477 171.529 66.3557C172.912 66.912 174.456 66.912 175.839 66.3557C176.042 66.2477 176.211 66.0866 176.329 65.8896C176.447 65.6927 176.51 65.4674 176.51 65.2378C176.51 65.0081 176.447 64.7828 176.329 64.5859C176.211 64.389 176.042 64.2279 175.839 64.1198Z" fill="#FDEF9A"/>
<path d="M177.628 52.5077C178.24 53.1756 178.622 54.022 178.717 54.9226H180.208V56.607H178.717C178.677 57.2797 178.557 57.9452 178.359 58.5895C178.202 59.1191 177.966 59.6217 177.658 60.0802L175.66 59.2901C175.958 58.8259 176.193 58.3248 176.361 57.7995C176.535 57.2496 176.625 56.6768 176.629 56.1002C176.629 55.0269 176.361 54.4903 175.824 54.4903C175.684 54.4927 175.549 54.5384 175.437 54.6213C175.325 54.7041 175.241 54.8198 175.198 54.9524C175.013 55.4355 174.874 55.9345 174.78 56.443C174.654 57.0716 174.479 57.6895 174.258 58.2914C174.082 58.7846 173.785 59.2255 173.393 59.5733C172.932 59.9368 172.355 60.122 171.768 60.0951C171.381 60.1007 170.998 60.0268 170.642 59.8781C170.285 59.7294 169.963 59.5089 169.695 59.2305C169.075 58.5354 168.703 57.6549 168.636 56.7262H167.145V54.9226H168.636C168.694 54.4194 168.789 53.9212 168.92 53.4319C169.052 52.9797 169.238 52.5445 169.471 52.1351L171.529 52.9847C171.052 53.8109 170.79 54.7439 170.769 55.6977C170.741 56.1158 170.828 56.5336 171.022 56.9051C171.084 57.0176 171.174 57.1115 171.284 57.1771C171.395 57.2426 171.52 57.2774 171.649 57.2778C171.782 57.2747 171.912 57.2299 172.018 57.1497C172.125 57.0696 172.205 56.958 172.245 56.8306C172.432 56.3493 172.567 55.8497 172.648 55.3399C172.777 54.7136 172.946 54.0962 173.155 53.4916C173.342 53.0048 173.644 52.5702 174.034 52.2245C174.253 52.0313 174.508 51.8831 174.785 51.7884C175.061 51.6938 175.353 51.6546 175.645 51.673C176.014 51.6739 176.38 51.7481 176.72 51.8914C177.061 52.0347 177.369 52.2442 177.628 52.5077Z" fill="#FDEF9A"/>
<path d="M168.785 71.0214H178.582V73.794H170.918V75.6871H168.785V71.0214Z" fill="#FDEF9A"/>
<path d="M178.18 67.4737C177.751 68.1309 177.139 68.6489 176.42 68.9643C175.557 69.346 174.62 69.5343 173.677 69.5159C172.737 69.534 171.806 69.3458 170.948 68.9643C170.229 68.6489 169.617 68.1309 169.188 67.4737C168.795 66.7939 168.589 66.0227 168.589 65.2378C168.589 64.4528 168.795 63.6816 169.188 63.0018C169.617 62.3446 170.229 61.8266 170.948 61.5112C171.806 61.1298 172.737 60.9415 173.677 60.9596C174.62 60.9412 175.557 61.1295 176.42 61.5112C177.139 61.8266 177.751 62.3446 178.18 63.0018C178.573 63.6816 178.779 64.4528 178.779 65.2378C178.779 66.0227 178.573 66.7939 178.18 67.4737ZM175.839 64.1198C174.456 63.5635 172.912 63.5635 171.529 64.1198C171.326 64.2279 171.157 64.389 171.039 64.5859C170.921 64.7828 170.858 65.0081 170.858 65.2378C170.858 65.4674 170.921 65.6927 171.039 65.8896C171.157 66.0866 171.326 66.2477 171.529 66.3557C172.912 66.912 174.456 66.912 175.839 66.3557C176.042 66.2477 176.211 66.0866 176.329 65.8896C176.447 65.6927 176.51 65.4674 176.51 65.2378C176.51 65.0081 176.447 64.7828 176.329 64.5859C176.211 64.389 176.042 64.2279 175.839 64.1198Z" fill="#FDEF9A"/>
<path d="M177.628 52.5077C178.24 53.1756 178.622 54.022 178.717 54.9226H180.208V56.607H178.717C178.677 57.2797 178.557 57.9452 178.359 58.5895C178.202 59.1191 177.966 59.6217 177.658 60.0802L175.66 59.2901C175.958 58.8259 176.193 58.3248 176.361 57.7995C176.535 57.2496 176.625 56.6768 176.629 56.1002C176.629 55.0269 176.361 54.4903 175.824 54.4903C175.684 54.4927 175.549 54.5384 175.437 54.6213C175.325 54.7041 175.241 54.8198 175.198 54.9524C175.013 55.4355 174.874 55.9345 174.78 56.443C174.654 57.0716 174.479 57.6895 174.258 58.2914C174.082 58.7846 173.785 59.2255 173.393 59.5733C172.932 59.9368 172.355 60.122 171.768 60.0951C171.381 60.1007 170.998 60.0268 170.642 59.8781C170.285 59.7294 169.963 59.5089 169.695 59.2305C169.075 58.5354 168.703 57.6549 168.636 56.7262H167.145V54.9226H168.636C168.694 54.4194 168.789 53.9212 168.92 53.4319C169.052 52.9797 169.238 52.5445 169.471 52.1351L171.529 52.9847C171.052 53.8109 170.79 54.7439 170.769 55.6977C170.741 56.1158 170.828 56.5336 171.022 56.9051C171.084 57.0176 171.174 57.1115 171.284 57.1771C171.395 57.2426 171.52 57.2774 171.649 57.2778C171.782 57.2747 171.912 57.2299 172.018 57.1497C172.125 57.0696 172.205 56.958 172.245 56.8306C172.432 56.3493 172.567 55.8497 172.648 55.3399C172.777 54.7136 172.946 54.0962 173.155 53.4916C173.342 53.0048 173.644 52.5702 174.034 52.2245C174.253 52.0313 174.508 51.8831 174.785 51.7884C175.061 51.6938 175.353 51.6546 175.645 51.673C176.014 51.6739 176.38 51.7481 176.72 51.8914C177.061 52.0347 177.369 52.2442 177.628 52.5077Z" fill="#FDEF9A"/>
<path d="M272.022 120.6L273.111 122.493L266.49 126.369L265.625 124.878L267.116 120.078C267.245 119.705 267.306 119.311 267.295 118.915C267.288 118.665 267.221 118.42 267.101 118.2C267.036 118.074 266.943 117.964 266.83 117.879C266.716 117.793 266.585 117.735 266.445 117.708C266.114 117.681 265.784 117.765 265.506 117.947C265.2 118.117 264.943 118.363 264.76 118.662C264.572 118.957 264.469 119.297 264.462 119.646H262.106C262.119 118.899 262.341 118.171 262.747 117.544C263.229 116.864 263.868 116.312 264.611 115.934C265.19 115.585 265.835 115.356 266.505 115.263C267.076 115.182 267.659 115.259 268.19 115.487C268.702 115.728 269.125 116.124 269.398 116.62C269.664 117.074 269.818 117.585 269.845 118.111C269.853 118.806 269.737 119.498 269.502 120.153L268.742 122.568L272.022 120.6Z" fill="#FDEF9A"/>
<path d="M279.807 117.559C279.553 118.416 279.03 119.169 278.315 119.706L279.091 121.047L277.6 121.882L276.854 120.585C276.253 120.887 275.617 121.113 274.96 121.256C274.406 121.4 273.832 121.455 273.26 121.42L273.022 119.199C273.583 119.228 274.145 119.178 274.692 119.05C275.262 118.925 275.81 118.713 276.317 118.424C277.242 117.902 277.57 117.395 277.301 116.933C277.231 116.815 277.125 116.722 277 116.666C276.875 116.61 276.735 116.594 276.6 116.62C276.096 116.705 275.598 116.824 275.109 116.978C274.505 117.173 273.887 117.323 273.26 117.425C272.761 117.503 272.25 117.462 271.769 117.306C271.219 117.093 270.767 116.684 270.501 116.158C270.304 115.827 270.178 115.458 270.132 115.076C270.085 114.693 270.12 114.305 270.233 113.937C270.498 113.078 271.038 112.329 271.769 111.805L270.993 110.464L272.485 109.629L273.23 110.941C273.71 110.72 274.209 110.545 274.722 110.419C275.18 110.304 275.651 110.244 276.123 110.24L276.407 112.461C275.453 112.454 274.514 112.69 273.678 113.147C273.301 113.332 272.982 113.615 272.753 113.967C272.69 114.078 272.657 114.204 272.657 114.332C272.657 114.46 272.69 114.585 272.753 114.697C272.823 114.811 272.927 114.9 273.049 114.953C273.172 115.007 273.308 115.021 273.439 114.995C273.945 114.912 274.444 114.787 274.93 114.622C275.539 114.417 276.162 114.257 276.794 114.145C277.294 114.066 277.805 114.107 278.286 114.265C278.834 114.471 279.286 114.875 279.553 115.398C279.741 115.721 279.861 116.08 279.905 116.452C279.948 116.824 279.915 117.201 279.807 117.559Z" fill="#FDEF9A"/>
<path d="M77.6121 122.642L82.5778 114.175L84.9638 115.666L81.0866 122.269L82.6673 123.194L81.5787 125.042L77.6121 122.642Z" fill="#FDEF9A"/>
<path d="M74.3912 110.493C75.2736 110.301 76.1948 110.4 77.0157 110.777L77.8061 109.435L79.2973 110.285L78.5367 111.582C79.0784 111.965 79.5782 112.405 80.028 112.893C80.4239 113.309 80.7557 113.781 81.0122 114.295L79.1929 115.591C78.6753 114.571 77.8791 113.718 76.8964 113.132C75.9719 112.595 75.4052 112.55 75.107 113.013C75.0319 113.125 74.9919 113.257 74.9919 113.393C74.9919 113.528 75.0319 113.66 75.107 113.773C75.4319 114.171 75.7857 114.545 76.1657 114.891C76.6395 115.316 77.083 115.775 77.4929 116.262C77.8312 116.663 78.0575 117.147 78.149 117.663C78.277 118.23 78.192 118.824 77.9104 119.333C77.7189 119.666 77.4614 119.957 77.1538 120.188C76.8461 120.418 76.4947 120.584 76.121 120.674C75.2111 120.85 74.2689 120.724 73.4368 120.317L72.6614 121.643L71.1701 120.794L71.9456 119.497C71.518 119.19 71.1188 118.846 70.7526 118.468C70.4252 118.126 70.1399 117.745 69.9026 117.335L71.6921 115.994C72.1585 116.826 72.8312 117.524 73.6456 118.021C73.9884 118.261 74.3911 118.4 74.8087 118.424C74.9379 118.427 75.0658 118.396 75.1787 118.333C75.2916 118.27 75.3853 118.178 75.4499 118.066C75.5243 117.959 75.5642 117.831 75.5642 117.701C75.5642 117.57 75.5243 117.443 75.4499 117.335C75.1328 116.944 74.7836 116.58 74.4061 116.247C73.9242 115.825 73.4755 115.367 73.064 114.876C72.7378 114.465 72.5084 113.986 72.3929 113.475C72.3006 112.893 72.4282 112.298 72.7508 111.805C72.9246 111.49 73.159 111.211 73.4404 110.986C73.7219 110.761 74.045 110.594 74.3912 110.493Z" fill="#FDEF9A"/>
<g style="mix-blend-mode:multiply">
<path d="M220.903 97.2864L222.797 98.3895L218.398 105.977L216.907 105.112L214.312 97.8976L211.896 102.056L209.973 101.028L214.208 93.7238L215.699 94.6033L218.294 101.818L220.903 97.2864Z" fill="#690101"/>
<path d="M225.541 89.4457L227.405 90.5189L223.453 97.3311L214.968 92.412L218.831 85.7638L220.68 86.8371L218.204 91.1152L219.695 91.9499L221.873 88.1786L223.662 89.2221L221.485 92.9785L222.976 93.8877L225.541 89.4457Z" fill="#690101"/>
<path d="M228.016 84.1837L227.271 85.4955L229.522 86.7923L228.121 89.1922L219.651 84.2732L221.887 80.3975C222.258 79.7105 222.766 79.1068 223.379 78.6236C223.915 78.222 224.559 77.9886 225.228 77.9529C225.892 77.9373 226.548 78.1024 227.126 78.4306C227.704 78.7587 228.182 79.2376 228.508 79.8161C228.81 80.3826 228.935 81.0265 228.866 81.6645L232.594 81.3813L231.103 83.9452L228.016 84.1837ZM224.676 80.7105C224.25 80.894 223.902 81.2211 223.692 81.6347L222.931 82.9763L225.407 84.4669L226.182 83.1403C226.437 82.7585 226.553 82.3005 226.51 81.8434C226.47 81.6487 226.386 81.4656 226.265 81.3081C226.143 81.1505 225.987 81.0227 225.809 80.9341C225.649 80.8158 225.464 80.7344 225.268 80.6958C225.072 80.6571 224.87 80.6622 224.676 80.7105Z" fill="#690101"/>
<path d="M234.011 78.1317C233.242 78.6181 232.356 78.8861 231.446 78.9069C230.528 78.9237 229.623 78.6809 228.837 78.2063C228.032 77.7525 227.367 77.0875 226.913 76.2834C226.484 75.4884 226.278 74.5922 226.316 73.6897C226.367 72.7211 226.654 71.7796 227.151 70.9469C227.622 70.0971 228.299 69.3794 229.12 68.86C229.897 68.378 230.793 68.1226 231.707 68.1226C232.621 68.1226 233.518 68.378 234.294 68.86C235.098 69.3098 235.759 69.976 236.203 70.7829C236.641 71.5746 236.848 72.4733 236.8 73.3766C236.743 74.3431 236.462 75.2831 235.978 76.1216C235.493 76.9601 234.82 77.6739 234.011 78.2063V78.1317ZM234.354 73.5555C234.355 73.092 234.226 72.6375 233.981 72.2437C233.714 71.8085 233.339 71.4491 232.893 71.2003C232.44 70.9328 231.927 70.784 231.401 70.768C230.938 70.7617 230.481 70.8746 230.074 71.096C229.665 71.338 229.326 71.6822 229.09 72.0947C228.849 72.501 228.721 72.964 228.717 73.4362C228.721 73.9011 228.856 74.3555 229.105 74.748C229.373 75.1821 229.742 75.5446 230.181 75.8042C230.62 76.0639 231.116 76.213 231.625 76.2386C232.095 76.2614 232.561 76.1475 232.967 75.9107C233.378 75.682 233.714 75.3406 233.937 74.9269C234.201 74.5177 234.346 74.0426 234.354 73.5555Z" fill="#690101"/>
<path d="M118.173 75.9405C118.251 75.5189 118.426 75.1212 118.685 74.7795C118.944 74.4378 119.279 74.1615 119.664 73.9729C120.176 73.68 120.76 73.5355 121.35 73.5555C121.985 73.5979 122.595 73.8202 123.109 74.1965C123.76 74.6912 124.294 75.322 124.675 76.0448C125.02 76.6437 125.286 77.2851 125.465 77.9529C125.648 78.5564 125.729 79.1861 125.704 79.8162L123.407 79.9801C123.434 79.5048 123.394 79.0282 123.288 78.564C123.177 78.0949 123.001 77.6435 122.766 77.2224C122.588 76.8666 122.314 76.5673 121.976 76.3579C121.842 76.2807 121.69 76.2401 121.536 76.2401C121.381 76.2401 121.23 76.2807 121.096 76.3579C120.961 76.4266 120.848 76.5312 120.769 76.66C120.69 76.7889 120.649 76.9372 120.649 77.0883C120.694 77.6212 120.874 78.1339 121.171 78.5789L122.483 80.8894L117.249 83.2893L114.177 77.8485L116.041 76.7902L117.979 80.2335L119.292 79.6373L118.964 79.0708C118.336 78.1547 118.056 77.0447 118.173 75.9405Z" fill="#690101"/>
<path d="M117.502 65.7148C118.353 65.9738 119.099 66.4957 119.635 67.2054L120.992 66.4452L121.812 67.9358L120.514 68.6662C120.797 69.2927 121.012 69.9472 121.156 70.619C121.28 71.1763 121.331 71.7477 121.305 72.3183L119.068 72.5419C119.102 71.9818 119.057 71.4198 118.934 70.8724C118.807 70.3048 118.601 69.7579 118.322 69.2476C117.8 68.3234 117.293 67.9954 116.831 68.2488C116.714 68.3196 116.62 68.4247 116.564 68.55C116.508 68.6752 116.492 68.8147 116.518 68.9494C116.587 69.4557 116.702 69.9546 116.861 70.4401C117.067 71.0482 117.226 71.6711 117.338 72.3034C117.413 72.8038 117.367 73.3149 117.204 73.794C116.985 74.34 116.578 74.7895 116.056 75.061C115.72 75.253 115.348 75.3745 114.963 75.418C114.579 75.4616 114.189 75.4263 113.819 75.3145C112.934 75.0255 112.176 74.4413 111.672 73.6598L110.329 74.4201L109.494 72.9294L110.822 72.1841C110.601 71.7049 110.426 71.2058 110.3 70.6935C110.182 70.236 110.126 69.7646 110.136 69.2923L112.343 69.024C112.343 69.9759 112.578 70.9131 113.029 71.7518C113.204 72.1297 113.483 72.4502 113.834 72.676C113.946 72.7462 114.075 72.7834 114.207 72.7834C114.339 72.7834 114.468 72.7462 114.579 72.676C114.691 72.6077 114.778 72.5063 114.829 72.386C114.88 72.2658 114.891 72.1326 114.863 72.0052C114.795 71.4974 114.675 70.9979 114.505 70.5146C114.305 69.9058 114.15 69.283 114.043 68.6513C113.962 68.1521 114.003 67.6409 114.162 67.1607C114.366 66.6055 114.778 66.1512 115.31 65.8936C115.643 65.7134 116.01 65.6045 116.387 65.5737C116.765 65.5429 117.144 65.5909 117.502 65.7148Z" fill="#690101"/>
</g>
<path d="M173.96 46.411L183.772 29.4178H164.147L173.96 46.411Z" fill="url(#paint6_linear_87_1340)"/>
<path d="M172.543 134.657C180.174 134.657 187.633 136.919 193.977 141.157C200.322 145.395 205.266 151.418 208.186 158.465C211.105 165.513 211.868 173.267 210.379 180.748C208.889 188.229 205.213 195.1 199.816 200.493C194.42 205.885 187.544 209.557 180.06 211.043C172.576 212.529 164.819 211.763 157.77 208.842C150.721 205.921 144.697 200.976 140.46 194.633C136.222 188.289 133.962 180.832 133.965 173.204C133.965 168.141 134.963 163.127 136.902 158.449C138.841 153.772 141.683 149.521 145.265 145.942C148.848 142.362 153.101 139.523 157.781 137.587C162.462 135.65 167.478 134.655 172.543 134.657ZM172.543 133.762C164.739 133.762 157.11 136.075 150.622 140.409C144.133 144.743 139.075 150.903 136.089 158.111C133.103 165.318 132.321 173.248 133.844 180.899C135.366 188.55 139.124 195.578 144.642 201.094C150.161 206.61 157.191 210.367 164.845 211.889C172.499 213.411 180.433 212.63 187.643 209.644C194.853 206.659 201.015 201.604 205.351 195.117C209.687 188.631 212.001 181.005 212.001 173.204C211.973 162.758 207.805 152.748 200.41 145.366C193.014 137.985 182.994 133.834 172.543 133.822V133.762Z" fill="url(#paint7_linear_87_1340)"/>
</g>
</g>
<defs>
<linearGradient id="paint0_linear_87_1340" x1="294.234" y1="51.5924" x2="58.9672" y2="286.951" gradientUnits="userSpaceOnUse">
<stop stop-color="#FFFB90"/>
<stop offset="0.14" stop-color="#FBEA78"/>
<stop offset="0.24" stop-color="#F8DC65"/>
<stop offset="0.27" stop-color="#E6C758"/>
<stop offset="0.34" stop-color="#C5A041"/>
<stop offset="0.4" stop-color="#AD8330"/>
<stop offset="0.45" stop-color="#9E7226"/>
<stop offset="0.49" stop-color="#996C22"/>
<stop offset="0.52" stop-color="#9D7126"/>
<stop offset="0.56" stop-color="#AA8131"/>
<stop offset="0.6" stop-color="#BE9B42"/>
<stop offset="0.64" stop-color="#DABE5B"/>
<stop offset="0.69" stop-color="#FBE878"/>
<stop offset="0.77" stop-color="#FFFFAA"/>
<stop offset="0.83" stop-color="#FBE878"/>
<stop offset="1" stop-color="#A4631B"/>
</linearGradient>
<linearGradient id="paint1_linear_87_1340" x1="69.8502" y1="70.5533" x2="287.87" y2="288.659" gradientUnits="userSpaceOnUse">
<stop stop-color="#FFFB90"/>
<stop offset="0.14" stop-color="#FBEA78"/>
<stop offset="0.24" stop-color="#F8DC65"/>
<stop offset="0.27" stop-color="#E6C758"/>
<stop offset="0.34" stop-color="#C5A041"/>
<stop offset="0.4" stop-color="#AD8330"/>
<stop offset="0.45" stop-color="#9E7226"/>
<stop offset="0.49" stop-color="#996C22"/>
<stop offset="0.52" stop-color="#9D7126"/>
<stop offset="0.56" stop-color="#AA8131"/>
<stop offset="0.6" stop-color="#BE9B42"/>
<stop offset="0.64" stop-color="#DABE5B"/>
<stop offset="0.69" stop-color="#FBE878"/>
<stop offset="0.77" stop-color="#FFFFAA"/>
<stop offset="0.83" stop-color="#FBE878"/>
<stop offset="1" stop-color="#A4631B"/>
</linearGradient>
<radialGradient id="paint2_radial_87_1340" cx="0" cy="0" r="1" gradientUnits="userSpaceOnUse" gradientTransform="translate(172.543 173.204) scale(140.831 140.775)">
<stop offset="0.37" stop-color="#FFEAB9"/>
<stop offset="0.55" stop-color="#FEE8B7"/>
<stop offset="0.65" stop-color="#FBDFAE"/>
<stop offset="0.73" stop-color="#F6D1A1"/>
<stop offset="0.8" stop-color="#EEBD8D"/>
<stop offset="0.84" stop-color="#E9AF7F"/>
<stop offset="0.93" stop-color="#A57761"/>
<stop offset="0.94" stop-color="#AD7F64"/>
<stop offset="0.97" stop-color="#C3956B"/>
<stop offset="0.99" stop-color="#E7BA76"/>
<stop offset="1" stop-color="#F5C87B"/>
</radialGradient>
<radialGradient id="paint3_radial_87_1340" cx="0" cy="0" r="1" gradientUnits="userSpaceOnUse" gradientTransform="translate(172.155 173.189) scale(140.04 139.985)">
<stop offset="0.37" stop-color="#FFADAC"/>
<stop offset="0.44" stop-color="#FD9FA3"/>
<stop offset="0.56" stop-color="#F67B8D"/>
<stop offset="0.72" stop-color="#EB4069"/>
<stop offset="0.88" stop-color="#E00041"/>
<stop offset="0.9" stop-color="#E10643"/>
<stop offset="0.92" stop-color="#E51748"/>
<stop offset="0.95" stop-color="#EB3351"/>
<stop offset="0.97" stop-color="#F45A5E"/>
<stop offset="1" stop-color="#FF8B6E"/>
</radialGradient>
<radialGradient id="paint4_radial_87_1340" cx="0" cy="0" r="1" gradientUnits="userSpaceOnUse" gradientTransform="translate(172.155 173.189) scale(140.04 139.985)">
<stop offset="0.37" stop-color="#FFADAC"/>
<stop offset="0.44" stop-color="#FD9FA3"/>
<stop offset="0.56" stop-color="#F67B8D"/>
<stop offset="0.72" stop-color="#EB4069"/>
<stop offset="0.88" stop-color="#E00041"/>
<stop offset="0.9" stop-color="#E10643"/>
<stop offset="0.92" stop-color="#E51748"/>
<stop offset="0.95" stop-color="#EB3351"/>
<stop offset="0.97" stop-color="#F45A5E"/>
<stop offset="1" stop-color="#FF8B6E"/>
</radialGradient>
<radialGradient id="paint5_radial_87_1340" cx="0" cy="0" r="1" gradientUnits="userSpaceOnUse" gradientTransform="translate(172.155 173.189) scale(140.04 139.985)">
<stop offset="0.37" stop-color="#FFADAC"/>
<stop offset="0.44" stop-color="#FD9FA3"/>
<stop offset="0.56" stop-color="#F67B8D"/>
<stop offset="0.72" stop-color="#EB4069"/>
<stop offset="0.88" stop-color="#E00041"/>
<stop offset="0.9" stop-color="#E10643"/>
<stop offset="0.92" stop-color="#E51748"/>
<stop offset="0.95" stop-color="#EB3351"/>
<stop offset="0.97" stop-color="#F45A5E"/>
<stop offset="1" stop-color="#FF8B6E"/>
</radialGradient>
<linearGradient id="paint6_linear_87_1340" x1="173.96" y1="40.3143" x2="173.96" y2="-10.0542" gradientUnits="userSpaceOnUse">
<stop stop-color="#FFFB90"/>
<stop offset="0.14" stop-color="#FBEA78"/>
<stop offset="0.24" stop-color="#F8DC65"/>
<stop offset="0.27" stop-color="#E6C758"/>
<stop offset="0.34" stop-color="#C5A041"/>
<stop offset="0.4" stop-color="#AD8330"/>
<stop offset="0.45" stop-color="#9E7226"/>
<stop offset="0.49" stop-color="#996C22"/>
<stop offset="0.52" stop-color="#9D7126"/>
<stop offset="0.56" stop-color="#AA8131"/>
<stop offset="0.6" stop-color="#BE9B42"/>
<stop offset="0.64" stop-color="#DABE5B"/>
<stop offset="0.69" stop-color="#FBE878"/>
<stop offset="0.77" stop-color="#FFFFAA"/>
<stop offset="0.83" stop-color="#FBE878"/>
<stop offset="1" stop-color="#A4631B"/>
</linearGradient>
<linearGradient id="paint7_linear_87_1340" x1="144.046" y1="201.69" x2="209.589" y2="136.136" gradientUnits="userSpaceOnUse">
<stop stop-color="#FFFB90"/>
<stop offset="0.14" stop-color="#FBEA78"/>
<stop offset="0.24" stop-color="#F8DC65"/>
<stop offset="0.27" stop-color="#E6C758"/>
<stop offset="0.34" stop-color="#C5A041"/>
<stop offset="0.4" stop-color="#AD8330"/>
<stop offset="0.45" stop-color="#9E7226"/>
<stop offset="0.49" stop-color="#996C22"/>
<stop offset="0.52" stop-color="#9D7126"/>
<stop offset="0.56" stop-color="#AA8131"/>
<stop offset="0.6" stop-color="#BE9B42"/>
<stop offset="0.64" stop-color="#DABE5B"/>
<stop offset="0.69" stop-color="#FBE878"/>
<stop offset="0.77" stop-color="#FFFFAA"/>
<stop offset="0.83" stop-color="#FBE878"/>
<stop offset="1" stop-color="#A4631B"/>
</linearGradient>
<clipPath id="clip0_87_1340">
<rect width="345" height="163" fill="white"/>
</clipPath>
</defs>
</svg>
