<svg width="345" height="163" viewBox="0 0 345 163" fill="none" xmlns="http://www.w3.org/2000/svg">
<g clip-path="url(#clip0_122_533)">
<mask id="mask0_122_533" style="mask-type:luminance" maskUnits="userSpaceOnUse" x="-67" y="-28" width="496" height="208">
<path d="M428.705 -27.1665H-66.7378V179.331H428.705V-27.1665Z" fill="white"/>
</mask>
<g mask="url(#mask0_122_533)">
<path d="M285.425 286.05C347.766 223.733 347.766 122.697 285.425 60.3801C223.083 -1.93678 122.008 -1.93677 59.6666 60.3801C-2.67475 122.697 -2.67476 223.733 59.6666 286.05C122.008 348.366 223.083 348.366 285.425 286.05Z" fill="url(#paint0_linear_122_533)"/>
<path d="M274.332 274.961C330.547 218.768 330.547 127.661 274.332 71.4686C218.117 15.2757 126.974 15.2757 70.7593 71.4686C14.5444 127.661 14.5444 218.768 70.7593 274.961C126.974 331.154 218.117 331.154 274.332 274.961Z" fill="url(#paint1_linear_122_533)"/>
<path d="M313.374 173.205C313.38 201.049 305.125 228.269 289.654 251.423C274.183 274.578 252.19 292.626 226.457 303.286C200.725 313.945 172.407 316.737 145.087 311.309C117.766 305.88 92.6699 292.475 72.9714 272.788C53.2729 253.102 39.8571 228.018 34.4207 200.709C28.9843 173.401 31.7714 145.094 42.4297 119.369C53.088 93.6438 71.1386 71.6559 94.2987 56.186C117.459 40.7161 144.688 32.459 172.543 32.459C209.889 32.459 245.705 47.2866 272.115 73.6806C298.525 100.075 313.366 135.874 313.374 173.205Z" fill="url(#paint2_radial_122_533)"/>
<g style="mix-blend-mode:multiply">
<path d="M275.02 76.6714L172.543 173.205L307.468 132.764C301.173 111.794 290.061 92.5858 275.02 76.6714Z" fill="url(#paint3_radial_122_533)"/>
<path d="M37.6475 132.764L172.558 173.205L70.0666 76.6714C55.0405 92.5922 43.9396 111.799 37.6475 132.764Z" fill="url(#paint4_radial_122_533)"/>
<path d="M172.543 32.459C161.633 32.4507 150.758 33.7114 140.139 36.2154L172.543 173.22L204.962 36.1856C194.336 33.6993 183.457 32.4488 172.543 32.459Z" fill="url(#paint5_radial_122_533)"/>
</g>
<path d="M168.785 71.0215H178.582V73.7941H170.918V75.6872H168.785V71.0215Z" fill="#FDEF9A"/>
<path d="M178.18 67.4738C177.751 68.131 177.139 68.649 176.42 68.9644C175.557 69.3461 174.62 69.5344 173.676 69.516C172.737 69.5341 171.806 69.3458 170.947 68.9644C170.228 68.649 169.617 68.131 169.188 67.4738C168.795 66.794 168.588 66.0228 168.588 65.2379C168.588 64.4529 168.795 63.6817 169.188 63.0019C169.617 62.3447 170.228 61.8267 170.947 61.5113C171.806 61.1299 172.737 60.9416 173.676 60.9597C174.62 60.9413 175.557 61.1296 176.42 61.5113C177.139 61.8267 177.751 62.3447 178.18 63.0019C178.572 63.6817 178.779 64.4529 178.779 65.2379C178.779 66.0228 178.572 66.794 178.18 67.4738ZM175.839 64.1199C174.456 63.5636 172.912 63.5636 171.529 64.1199C171.326 64.2279 171.157 64.389 171.039 64.586C170.92 64.7829 170.858 65.0082 170.858 65.2379C170.858 65.4675 170.92 65.6928 171.039 65.8897C171.157 66.0867 171.326 66.2478 171.529 66.3558C172.912 66.9121 174.456 66.9121 175.839 66.3558C176.041 66.2478 176.211 66.0867 176.329 65.8897C176.447 65.6928 176.51 65.4675 176.51 65.2379C176.51 65.0082 176.447 64.7829 176.329 64.586C176.211 64.389 176.041 64.2279 175.839 64.1199Z" fill="#FDEF9A"/>
<path d="M177.628 52.5076C178.24 53.1755 178.622 54.0218 178.717 54.9225H180.208V56.6069H178.717C178.677 57.2796 178.557 57.9451 178.359 58.5894C178.202 59.119 177.966 59.6216 177.658 60.0801L175.66 59.29C175.958 58.8258 176.193 58.3247 176.361 57.7994C176.535 57.2495 176.625 56.6767 176.629 56.1001C176.629 55.0268 176.361 54.4902 175.824 54.4902C175.684 54.4926 175.549 54.5383 175.437 54.6212C175.325 54.704 175.241 54.8197 175.198 54.9523C175.013 55.4354 174.874 55.9343 174.78 56.4429C174.654 57.0715 174.479 57.6894 174.258 58.2913C174.082 58.7845 173.785 59.2254 173.393 59.5732C172.932 59.9367 172.355 60.1219 171.768 60.095C171.381 60.1006 170.998 60.0267 170.642 59.878C170.285 59.7293 169.963 59.5088 169.695 59.2304C169.075 58.5353 168.703 57.6548 168.636 56.7261H167.145V54.9225H168.636C168.694 54.4193 168.789 53.9211 168.92 53.4318C169.052 52.9796 169.238 52.5444 169.471 52.135L171.529 52.9846C171.052 53.8107 170.79 54.7438 170.769 55.6976C170.741 56.1157 170.828 56.5335 171.022 56.905C171.084 57.0175 171.174 57.1114 171.284 57.177C171.395 57.2425 171.52 57.2773 171.649 57.2777C171.782 57.2746 171.912 57.2298 172.018 57.1496C172.125 57.0695 172.205 56.9579 172.245 56.8305C172.432 56.3492 172.567 55.8496 172.648 55.3398C172.777 54.7135 172.946 54.0961 173.155 53.4915C173.342 53.0046 173.644 52.5701 174.034 52.2244C174.253 52.0312 174.508 51.883 174.785 51.7883C175.061 51.6937 175.353 51.6545 175.645 51.6729C176.014 51.6738 176.38 51.748 176.72 51.8913C177.061 52.0346 177.369 52.2441 177.628 52.5076Z" fill="#FDEF9A"/>
<path d="M168.785 71.0215H178.582V73.7941H170.918V75.6872H168.785V71.0215Z" fill="#FDEF9A"/>
<path d="M178.18 67.4738C177.751 68.131 177.139 68.649 176.42 68.9644C175.557 69.3461 174.62 69.5344 173.676 69.516C172.737 69.5341 171.806 69.3458 170.947 68.9644C170.228 68.649 169.617 68.131 169.188 67.4738C168.795 66.794 168.588 66.0228 168.588 65.2379C168.588 64.4529 168.795 63.6817 169.188 63.0019C169.617 62.3447 170.228 61.8267 170.947 61.5113C171.806 61.1299 172.737 60.9416 173.676 60.9597C174.62 60.9413 175.557 61.1296 176.42 61.5113C177.139 61.8267 177.751 62.3447 178.18 63.0019C178.572 63.6817 178.779 64.4529 178.779 65.2379C178.779 66.0228 178.572 66.794 178.18 67.4738ZM175.839 64.1199C174.456 63.5636 172.912 63.5636 171.529 64.1199C171.326 64.2279 171.157 64.389 171.039 64.586C170.92 64.7829 170.858 65.0082 170.858 65.2379C170.858 65.4675 170.92 65.6928 171.039 65.8897C171.157 66.0867 171.326 66.2478 171.529 66.3558C172.912 66.9121 174.456 66.9121 175.839 66.3558C176.041 66.2478 176.211 66.0867 176.329 65.8897C176.447 65.6928 176.51 65.4675 176.51 65.2379C176.51 65.0082 176.447 64.7829 176.329 64.586C176.211 64.389 176.041 64.2279 175.839 64.1199Z" fill="#FDEF9A"/>
<path d="M177.628 52.5076C178.24 53.1755 178.622 54.0218 178.717 54.9225H180.208V56.6069H178.717C178.677 57.2796 178.557 57.9451 178.359 58.5894C178.202 59.119 177.966 59.6216 177.658 60.0801L175.66 59.29C175.958 58.8258 176.193 58.3247 176.361 57.7994C176.535 57.2495 176.625 56.6767 176.629 56.1001C176.629 55.0268 176.361 54.4902 175.824 54.4902C175.684 54.4926 175.549 54.5383 175.437 54.6212C175.325 54.704 175.241 54.8197 175.198 54.9523C175.013 55.4354 174.874 55.9343 174.78 56.4429C174.654 57.0715 174.479 57.6894 174.258 58.2913C174.082 58.7845 173.785 59.2254 173.393 59.5732C172.932 59.9367 172.355 60.1219 171.768 60.095C171.381 60.1006 170.998 60.0267 170.642 59.878C170.285 59.7293 169.963 59.5088 169.695 59.2304C169.075 58.5353 168.703 57.6548 168.636 56.7261H167.145V54.9225H168.636C168.694 54.4193 168.789 53.9211 168.92 53.4318C169.052 52.9796 169.238 52.5444 169.471 52.135L171.529 52.9846C171.052 53.8107 170.79 54.7438 170.769 55.6976C170.741 56.1157 170.828 56.5335 171.022 56.905C171.084 57.0175 171.174 57.1114 171.284 57.177C171.395 57.2425 171.52 57.2773 171.649 57.2777C171.782 57.2746 171.912 57.2298 172.018 57.1496C172.125 57.0695 172.205 56.9579 172.245 56.8305C172.432 56.3492 172.567 55.8496 172.648 55.3398C172.777 54.7135 172.946 54.0961 173.155 53.4915C173.342 53.0046 173.644 52.5701 174.034 52.2244C174.253 52.0312 174.508 51.883 174.785 51.7883C175.061 51.6937 175.353 51.6545 175.645 51.6729C176.014 51.6738 176.38 51.748 176.72 51.8913C177.061 52.0346 177.369 52.2441 177.628 52.5076Z" fill="#FDEF9A"/>
<path d="M272.023 120.6L273.111 122.493L266.49 126.369L265.625 124.878L267.116 120.078C267.246 119.705 267.306 119.311 267.295 118.915C267.288 118.665 267.221 118.42 267.102 118.2C267.036 118.074 266.944 117.964 266.83 117.879C266.716 117.793 266.585 117.735 266.445 117.708C266.114 117.681 265.784 117.765 265.506 117.947C265.2 118.117 264.943 118.363 264.76 118.662C264.573 118.957 264.47 119.297 264.462 119.646H262.106C262.119 118.899 262.341 118.171 262.747 117.544C263.229 116.864 263.869 116.312 264.611 115.934C265.191 115.585 265.835 115.356 266.505 115.263C267.077 115.182 267.66 115.259 268.19 115.487C268.702 115.728 269.125 116.124 269.398 116.62C269.665 117.074 269.818 117.585 269.845 118.11C269.854 118.806 269.737 119.498 269.502 120.153L268.742 122.567L272.023 120.6Z" fill="#FDEF9A"/>
<path d="M279.807 117.559C279.553 118.416 279.03 119.169 278.315 119.706L279.091 121.047L277.6 121.882L276.854 120.585C276.253 120.887 275.617 121.113 274.96 121.256C274.406 121.4 273.832 121.455 273.26 121.42L273.022 119.199C273.583 119.228 274.145 119.178 274.692 119.05C275.262 118.925 275.81 118.714 276.317 118.424C277.242 117.902 277.57 117.395 277.301 116.933C277.231 116.815 277.125 116.722 277 116.666C276.875 116.61 276.735 116.594 276.6 116.62C276.096 116.705 275.598 116.824 275.109 116.978C274.505 117.173 273.887 117.323 273.26 117.425C272.761 117.503 272.25 117.462 271.769 117.306C271.219 117.093 270.767 116.684 270.501 116.158C270.304 115.827 270.178 115.458 270.132 115.076C270.085 114.693 270.12 114.305 270.233 113.937C270.498 113.078 271.038 112.329 271.769 111.805L270.993 110.464L272.485 109.629L273.23 110.941C273.71 110.72 274.209 110.545 274.722 110.419C275.18 110.304 275.651 110.244 276.123 110.24L276.407 112.461C275.453 112.454 274.514 112.69 273.678 113.147C273.301 113.332 272.982 113.615 272.753 113.967C272.69 114.078 272.657 114.204 272.657 114.332C272.657 114.46 272.69 114.586 272.753 114.697C272.823 114.811 272.927 114.9 273.049 114.953C273.172 115.007 273.308 115.021 273.439 114.995C273.945 114.912 274.444 114.787 274.93 114.623C275.539 114.417 276.162 114.257 276.794 114.146C277.294 114.066 277.805 114.107 278.286 114.265C278.834 114.472 279.286 114.875 279.553 115.398C279.741 115.721 279.861 116.08 279.905 116.452C279.948 116.824 279.915 117.201 279.807 117.559Z" fill="#FDEF9A"/>
<path d="M77.6123 122.642L82.5781 114.175L84.964 115.666L81.0868 122.269L82.6675 123.194L81.5789 125.042L77.6123 122.642Z" fill="#FDEF9A"/>
<path d="M74.3909 110.493C75.2733 110.301 76.1946 110.4 77.0155 110.777L77.8058 109.435L79.297 110.285L78.5365 111.582C79.0781 111.965 79.578 112.405 80.0277 112.893C80.4237 113.309 80.7554 113.781 81.0119 114.295L79.1926 115.591C78.6751 114.571 77.8788 113.718 76.8962 113.132C75.9716 112.595 75.405 112.55 75.1067 113.013C75.0317 113.125 74.9917 113.257 74.9917 113.393C74.9917 113.528 75.0317 113.66 75.1067 113.773C75.4316 114.171 75.7855 114.545 76.1655 114.891C76.6393 115.316 77.0828 115.775 77.4927 116.262C77.8309 116.663 78.0572 117.147 78.1488 117.663C78.2767 118.23 78.1918 118.824 77.9102 119.333C77.7186 119.666 77.4612 119.957 77.1535 120.188C76.8459 120.418 76.4945 120.584 76.1207 120.674C75.2109 120.85 74.2686 120.724 73.4365 120.317L72.6611 121.643L71.1699 120.794L71.9453 119.497C71.5178 119.19 71.1185 118.846 70.7523 118.468C70.425 118.126 70.1396 117.745 69.9023 117.335L71.6918 115.994C72.1583 116.826 72.831 117.524 73.6453 118.021C73.9881 118.261 74.3909 118.4 74.8085 118.424C74.9377 118.427 75.0656 118.396 75.1785 118.333C75.2914 118.27 75.3851 118.178 75.4497 118.066C75.5241 117.959 75.5639 117.831 75.5639 117.701C75.5639 117.57 75.5241 117.443 75.4497 117.335C75.1325 116.944 74.7834 116.58 74.4058 116.247C73.924 115.825 73.4753 115.367 73.0637 114.876C72.7375 114.465 72.5082 113.986 72.3927 113.475C72.3003 112.893 72.4279 112.298 72.7506 111.805C72.9244 111.49 73.1587 111.211 73.4402 110.986C73.7216 110.761 74.0447 110.594 74.3909 110.493Z" fill="#FDEF9A"/>
<g style="mix-blend-mode:multiply">
<path d="M220.903 97.2867L222.797 98.3898L218.398 105.977L216.907 105.113L214.312 97.8979L211.896 102.057L209.973 101.028L214.208 93.7241L215.699 94.6036L218.294 101.818L220.903 97.2867Z" fill="#690101"/>
<path d="M225.541 89.446L227.405 90.5193L223.453 97.3315L214.968 92.4124L218.831 85.7642L220.68 86.8374L218.204 91.1155L219.695 91.9503L221.873 88.179L223.662 89.2224L221.485 92.9788L222.976 93.8881L225.541 89.446Z" fill="#690101"/>
<path d="M228.017 84.184L227.271 85.4958L229.523 86.7926L228.121 89.1925L219.651 84.2735L221.888 80.3978C222.258 79.7109 222.766 79.1071 223.379 78.624C223.915 78.2223 224.559 77.9889 225.228 77.9532C225.892 77.9376 226.549 78.1027 227.126 78.4309C227.704 78.759 228.182 79.2379 228.509 79.8165C228.81 80.3829 228.935 81.0268 228.867 81.6648L232.595 81.3816L231.103 83.9455L228.017 84.184ZM224.676 80.7108C224.25 80.8943 223.902 81.2214 223.692 81.635L222.932 82.9766L225.407 84.4672L226.182 83.1406C226.438 82.7588 226.553 82.3008 226.51 81.8437C226.47 81.649 226.386 81.4659 226.265 81.3084C226.143 81.1508 225.988 81.023 225.81 80.9344C225.649 80.8161 225.464 80.7347 225.268 80.6961C225.072 80.6574 224.87 80.6625 224.676 80.7108Z" fill="#690101"/>
<path d="M234.011 78.1322C233.243 78.6185 232.356 78.8865 231.446 78.9073C230.528 78.9242 229.623 78.6813 228.837 78.2067C228.032 77.7529 227.367 77.088 226.913 76.2838C226.484 75.4888 226.278 74.5926 226.317 73.6901C226.368 72.7215 226.654 71.7801 227.152 70.9473C227.622 70.0975 228.299 69.3798 229.12 68.8604C229.897 68.3784 230.793 68.123 231.707 68.123C232.622 68.123 233.518 68.3784 234.295 68.8604C235.098 69.3102 235.76 69.9764 236.203 70.7833C236.641 71.575 236.848 72.4737 236.8 73.377C236.743 74.3435 236.462 75.2835 235.978 76.122C235.494 76.9605 234.82 77.6744 234.011 78.2067V78.1322ZM234.354 73.5559C234.355 73.0924 234.226 72.6379 233.981 72.2442C233.714 71.8089 233.339 71.4496 232.893 71.2007C232.44 70.9332 231.927 70.7845 231.402 70.7684C230.938 70.7621 230.481 70.875 230.074 71.0964C229.665 71.3384 229.326 71.6826 229.09 72.0951C228.849 72.5014 228.721 72.9644 228.717 73.4367C228.722 73.9015 228.856 74.3559 229.105 74.7484C229.373 75.1825 229.742 75.545 230.181 75.8047C230.62 76.0643 231.116 76.2134 231.625 76.2391C232.095 76.2618 232.561 76.1479 232.967 75.9111C233.378 75.6824 233.714 75.341 233.937 74.9273C234.201 74.5181 234.346 74.043 234.354 73.5559Z" fill="#690101"/>
<path d="M118.173 75.941C118.251 75.5194 118.426 75.1218 118.685 74.7801C118.944 74.4383 119.279 74.1621 119.664 73.9734C120.176 73.6806 120.76 73.536 121.35 73.556C121.985 73.5984 122.595 73.8207 123.109 74.197C123.76 74.6917 124.294 75.3225 124.675 76.0454C125.02 76.6442 125.286 77.2857 125.465 77.9534C125.648 78.5569 125.729 79.1866 125.704 79.8167L123.407 79.9807C123.434 79.5054 123.394 79.0287 123.288 78.5646C123.177 78.0955 123.001 77.644 122.766 77.223C122.588 76.8671 122.314 76.5678 121.976 76.3584C121.842 76.2812 121.69 76.2406 121.536 76.2406C121.381 76.2406 121.23 76.2812 121.096 76.3584C120.961 76.4271 120.848 76.5317 120.769 76.6606C120.69 76.7895 120.649 76.9377 120.649 77.0888C120.694 77.6217 120.874 78.1345 121.171 78.5795L122.483 80.8899L117.249 83.2899L114.177 77.849L116.041 76.7907L117.979 80.2341L119.292 79.6378L118.964 79.0714C118.336 78.1552 118.056 77.0452 118.173 75.941Z" fill="#690101"/>
<path d="M117.502 65.7151C118.353 65.9741 119.099 66.496 119.634 67.2057L120.991 66.4455L121.812 67.9361L120.514 68.6665C120.796 69.293 121.011 69.9475 121.155 70.6193C121.28 71.1766 121.33 71.748 121.305 72.3186L119.068 72.5422C119.102 71.9821 119.057 71.4201 118.934 70.8727C118.807 70.3051 118.601 69.7582 118.322 69.2479C117.8 68.3237 117.293 67.9957 116.831 68.2492C116.713 68.3199 116.62 68.425 116.564 68.5503C116.508 68.6755 116.492 68.815 116.518 68.9498C116.587 69.456 116.702 69.9549 116.861 70.4404C117.067 71.0486 117.226 71.6714 117.338 72.3037C117.413 72.8041 117.367 73.3152 117.204 73.7943C116.985 74.3403 116.578 74.7898 116.056 75.0614C115.719 75.2533 115.348 75.3748 114.963 75.4183C114.579 75.4619 114.189 75.4267 113.819 75.3148C112.934 75.0258 112.176 74.4416 111.671 73.6602L110.329 74.4204L109.494 72.9297L110.821 72.1844C110.6 71.7052 110.426 71.2061 110.299 70.6938C110.181 70.2363 110.126 69.7649 110.135 69.2926L112.342 69.0243C112.342 69.9762 112.578 70.9134 113.028 71.7521C113.204 72.13 113.483 72.4505 113.834 72.6763C113.945 72.7465 114.074 72.7837 114.206 72.7837C114.338 72.7837 114.468 72.7465 114.579 72.6763C114.69 72.608 114.778 72.5066 114.828 72.3863C114.879 72.2661 114.891 72.1329 114.863 72.0055C114.795 71.4977 114.675 70.9982 114.505 70.5149C114.304 69.9061 114.15 69.2833 114.042 68.6516C113.962 68.1524 114.003 67.6412 114.162 67.161C114.366 66.6058 114.777 66.1515 115.31 65.8939C115.643 65.7137 116.01 65.6048 116.387 65.574C116.765 65.5432 117.144 65.5912 117.502 65.7151Z" fill="#690101"/>
</g>
<path d="M173.96 46.4112L183.772 29.418H164.147L173.96 46.4112Z" fill="url(#paint6_linear_122_533)"/>
<path d="M172.543 134.657C180.174 134.657 187.633 136.919 193.977 141.157C200.322 145.395 205.266 151.418 208.186 158.465C211.105 165.513 211.868 173.267 210.379 180.748C208.889 188.229 205.213 195.1 199.816 200.493C194.42 205.885 187.544 209.557 180.06 211.043C172.576 212.529 164.819 211.763 157.77 208.842C150.721 205.921 144.697 200.976 140.46 194.633C136.222 188.289 133.962 180.832 133.965 173.204C133.965 168.141 134.963 163.127 136.902 158.449C138.841 153.772 141.683 149.521 145.265 145.942C148.848 142.362 153.101 139.523 157.781 137.587C162.462 135.65 167.478 134.655 172.543 134.657ZM172.543 133.762C164.739 133.762 157.11 136.075 150.622 140.409C144.133 144.743 139.075 150.903 136.089 158.111C133.103 165.318 132.321 173.248 133.844 180.899C135.366 188.55 139.124 195.578 144.642 201.094C150.161 206.61 157.191 210.367 164.845 211.889C172.499 213.411 180.433 212.63 187.643 209.644C194.853 206.659 201.015 201.604 205.351 195.117C209.687 188.631 212.001 181.005 212.001 173.204C211.973 162.758 207.805 152.748 200.41 145.366C193.014 137.985 182.994 133.834 172.543 133.822V133.762Z" fill="url(#paint7_linear_122_533)"/>
</g>
<mask id="mask1_122_533" style="mask-type:luminance" maskUnits="userSpaceOnUse" x="26" y="57" width="92" height="64">
<path d="M26.8164 57.0737H118V120.896H26.8164V57.0737Z" fill="white"/>
</mask>
<g mask="url(#mask1_122_533)">
<path d="M91.928 90.7173L87.3865 84.6936C86.4569 83.4599 84.6033 84.2844 84.7578 85.8615L85.4783 93.1936L82.5417 94.7971L76.8361 88.4945C75.816 87.368 74.052 88.3399 74.3119 89.8868L75.5853 97.4846C75.5853 97.4846 59.7569 89.6321 46.0353 88.2419C32.3128 86.8507 26.8257 91.2588 26.8257 91.2588C26.8257 91.2588 45.0916 96.2297 46.0296 104.924C46.0296 104.924 57.9966 97.6695 68.9105 108.936C68.9105 108.936 71.2811 105.037 77.2326 106.542C82.4607 107.871 90.7394 120.903 90.7394 120.903C90.7394 120.903 91.5475 101.406 95.5955 99.179C99.425 97.0734 101.287 97.9918 101.287 97.9918C101.287 97.9918 101.495 78.9871 112.691 75.9469C112.691 75.9469 107.92 61.8525 117.978 57.1948C117.978 57.1908 91.7481 59.0903 91.928 90.7173Z" fill="black"/>
</g>
<mask id="mask2_122_533" style="mask-type:luminance" maskUnits="userSpaceOnUse" x="18" y="31" width="52" height="37">
<path d="M18 31.9844H69.975V67.6781H18V31.9844Z" fill="white"/>
</mask>
<g mask="url(#mask2_122_533)">
<path d="M47.9721 54.0226L47.7027 50.3206C47.6952 50.2065 47.6707 50.0963 47.6302 49.9902C47.5897 49.8852 47.5342 49.7882 47.4635 49.7023C47.3938 49.6154 47.3128 49.5427 47.2215 49.4841C47.1292 49.4255 47.0312 49.384 46.9267 49.3598C46.8221 49.3355 46.7166 49.3295 46.6112 49.3416C46.5047 49.3537 46.403 49.384 46.306 49.4315C46.2081 49.479 46.1205 49.5417 46.0423 49.6194C45.9641 49.6983 45.9001 49.7872 45.8483 49.8882L44.2839 52.9637L42.4756 52.7142L41.8022 48.4636C41.7843 48.3515 41.7513 48.2454 41.7014 48.1453C41.6524 48.0443 41.5893 47.9544 41.513 47.8756C41.4367 47.7968 41.351 47.7331 41.255 47.6836C41.1598 47.6351 41.0591 47.6028 40.9545 47.5886C40.849 47.5735 40.7445 47.5775 40.6409 47.5987C40.5363 47.62 40.4384 47.6584 40.3461 47.7139C40.2538 47.7685 40.1709 47.8382 40.0993 47.9221C40.0277 48.0049 39.9703 48.0989 39.926 48.2019L38.4954 51.5846C38.4954 51.5846 33.564 42.6308 27.6916 37.3407C21.8193 32.0505 18.0181 32.206 18.0181 32.206C18.0181 32.206 24.9151 40.6738 22.7828 44.9718C22.7828 44.9718 30.3956 45.7084 32.0702 54.5641C32.0702 54.5641 34.3042 53.581 36.5825 56.2898C38.5839 58.6712 38.5359 67.442 38.5359 67.442C38.5359 67.442 44.6465 58.7914 47.1499 59.145C49.5224 59.4805 50.111 60.5312 50.111 60.5312C50.111 60.5312 55.8016 51.9039 61.8208 54.3085C61.8208 54.3085 63.7883 46.2408 69.7623 47.5209C69.7661 47.5149 57.203 39.4866 47.9721 54.0226Z" fill="black"/>
</g>
<path d="M92.97 24.7997L91.1316 23.4216C91.0308 23.3458 90.9187 23.3104 90.7963 23.3145C90.6729 23.3185 90.5637 23.362 90.4676 23.4438C90.3715 23.5266 90.3075 23.6317 90.2764 23.759C90.2453 23.8863 90.2538 24.0116 90.2999 24.1339L91.1033 26.2455L90.2962 27.0568L88.0603 25.6878C87.9548 25.6221 87.8408 25.5969 87.7193 25.612C87.5978 25.6272 87.4933 25.6797 87.4038 25.7696C87.3153 25.8595 87.2607 25.9697 87.239 26.098C87.2173 26.2273 87.2343 26.3506 87.2889 26.4678L88.2769 28.6208C88.2769 28.6208 82.4743 27.665 77.913 28.5956C73.3517 29.5251 71.9644 31.4832 71.9644 31.4832C71.9644 31.4832 78.301 31.2639 79.3672 33.9818C79.3672 33.9818 82.6052 30.4395 87.1109 32.9896C87.1109 32.9896 87.5394 31.4912 89.5945 31.3841C91.401 31.2912 95.2088 34.6769 95.2088 34.6769C95.2088 34.6769 93.7753 28.2935 94.8923 27.1669C95.9472 26.1041 96.6281 26.2152 96.6281 26.2152C96.6281 26.2152 95.0458 20.05 98.4016 17.9465C98.4016 17.9465 95.6354 13.8687 98.4816 11.356C98.4807 11.357 90.1615 14.5931 92.97 24.7997Z" fill="black"/>
<path d="M55.273 6.81386L54.9123 5.3246C54.8878 5.22356 54.8369 5.13971 54.7607 5.07504C54.6844 5.00937 54.5977 4.97502 54.5007 4.97098C54.4028 4.96795 54.3142 4.99624 54.2342 5.05585C54.1541 5.11546 54.0985 5.19527 54.0675 5.29429L53.6408 6.66938L52.8553 6.70676L52.2902 5.01543C52.2573 4.91844 52.1998 4.84064 52.1198 4.78305C52.0388 4.72546 51.9502 4.69919 51.8542 4.70424C51.7571 4.7093 51.6714 4.74466 51.5961 4.81033C51.5207 4.876 51.4718 4.95885 51.4473 5.05888L51.096 6.5542C51.096 6.5542 48.376 3.16851 45.5194 1.41353C42.6638 -0.340438 41.0664 0.0333915 41.0664 0.0333915C41.0664 0.0333915 44.5804 3.0503 43.9842 5.04069C43.9842 5.04069 47.2533 4.73152 48.5898 8.33646C48.5898 8.33646 49.4647 7.73833 50.6194 8.69816C51.6347 9.54079 52.2347 13.2518 52.2347 13.2518C52.2347 13.2518 54.205 9.09826 55.2918 9.04269C56.3166 8.99015 56.6377 9.38722 56.6377 9.38722C56.6377 9.38722 58.4319 5.27711 61.1463 5.80149C61.1463 5.80149 61.4062 2.23192 64.0217 2.28445C64.0217 2.28445 58.1437 -0.0817886 55.273 6.81386Z" fill="black"/>
<mask id="mask3_122_533" style="mask-type:luminance" maskUnits="userSpaceOnUse" x="234" y="50" width="47" height="94">
<path d="M234 50H281V143.685H234V50Z" fill="white"/>
</mask>
<g mask="url(#mask3_122_533)">
<path d="M282.032 108.439C281.594 107.775 281.136 107.13 280.657 106.486C280.157 105.811 279.647 105.156 279.137 104.492C278.721 103.95 278.325 103.316 277.825 102.825C277.585 102.354 277.075 102.088 276.617 101.843C276.315 101.679 276.024 101.505 275.732 101.332C275.545 101.219 275.305 101.117 275.087 101.127C274.701 101.035 274.316 100.964 273.92 100.912C273.681 100.882 273.452 100.851 273.212 100.82C273.129 100.81 273.046 100.8 272.952 100.779C273.077 100.759 273.202 100.739 273.316 100.718C273.545 100.687 273.764 100.657 273.993 100.626C274.222 100.595 274.691 100.544 274.764 100.278C274.774 100.268 274.785 100.268 274.785 100.258C274.982 99.9204 275.014 99.5418 275.045 99.1635C275.076 98.6931 275.107 98.233 275.139 97.7624C275.18 97.0569 275.305 96.208 274.941 95.5637C274.274 94.367 273.67 93.15 272.962 91.9742C272.608 91.3912 272.234 90.8184 271.932 90.2048C271.526 89.3867 271.151 88.5686 270.64 87.8016C270.63 87.781 270.599 87.8016 270.609 87.8219C271.036 88.6503 271.369 89.5402 271.775 90.3786C272.067 90.982 272.421 91.5344 272.754 92.1069C273.056 92.6184 273.358 93.14 273.639 93.6716C274.014 94.3876 274.316 95.1342 274.764 95.8091C274.764 95.8091 274.764 95.8091 274.774 95.8194C274.795 95.9217 274.816 96.0238 274.826 96.1262C274.806 96.4124 274.733 96.6886 274.67 96.9546C274.576 97.3226 274.462 97.6806 274.337 98.0489C274.222 98.4069 274.098 98.7749 273.993 99.1329C273.941 99.3068 273.837 99.5418 273.889 99.7363C273.733 99.7157 273.556 99.7875 273.41 99.8387C273.202 99.9204 273.015 100.033 272.817 100.145C272.588 100.268 272.317 100.35 272.067 100.442C271.953 100.483 271.838 100.524 271.723 100.575C271.713 100.575 271.703 100.585 271.692 100.585C271.703 100.565 271.723 100.554 271.734 100.534C271.859 100.401 271.963 100.258 272.077 100.115C272.296 99.8181 272.494 99.5009 272.671 99.1738C272.848 98.8464 272.942 98.4987 272.921 98.1204C272.91 97.9771 272.9 97.8442 272.879 97.7012C272.879 97.6909 272.879 97.6909 272.879 97.6806C272.817 96.9852 272.723 96.2897 272.629 95.5943C272.588 95.2875 272.556 94.9807 272.515 94.6738C272.483 94.4591 272.421 94.2546 272.296 94.0808C272.098 93.4568 271.838 92.8435 271.609 92.2398C271.338 91.5547 271.047 90.8696 270.755 90.1945C270.443 89.4787 270.141 88.7833 269.912 88.0367C269.766 87.5866 269.558 87.0959 269.12 86.8503C269.12 85.255 269.11 83.7312 269.12 82.4427C269.12 81.3892 269.12 80.1619 269.12 78.8632C269.162 78.0245 269.224 77.1758 269.308 76.3371C269.641 73.218 270.162 70.1191 270.495 67C270.307 67.9102 270.141 68.8612 270.005 69.8329C269.745 70.1091 269.381 70.4057 269.11 70.017C269.11 70.017 269.089 69.9862 269.058 69.9556C269.047 69.7614 269.047 69.5567 269.037 69.3728C269.027 69.5467 269.027 69.7305 269.016 69.9044C269.016 69.8944 269.006 69.8944 269.006 69.8944C268.912 70.0988 268.777 70.6613 268.475 70.4362C268.402 70.1909 268.308 69.9453 268.204 69.6999C268.933 72.0113 268.808 74.5782 268.922 77.0122C268.933 77.2373 268.933 77.452 268.933 77.6768C268.933 79.4053 268.943 81.0721 268.933 82.453C268.943 84.1709 268.933 86.339 268.933 88.5277C268.589 89.0901 268.266 89.6729 267.965 90.2559C267.673 90.8081 267.527 91.4014 267.34 91.9842C267.121 92.649 266.871 93.2933 266.58 93.9275C266.34 94.4591 266.028 94.9604 265.799 95.4922C265.539 95.5943 265.434 95.9523 265.351 96.1877C265.226 96.5454 265.091 96.9137 264.976 97.2817C264.914 97.4761 264.862 97.6703 264.799 97.8647C264.768 97.9568 264.737 98.0489 264.716 98.141C264.685 98.2228 264.643 98.3148 264.633 98.4069C264.633 98.4272 264.633 98.4478 264.633 98.4681C264.612 98.509 264.601 98.5499 264.601 98.5908C264.601 98.6625 264.622 98.7443 264.653 98.8158C264.674 98.8773 264.716 98.9285 264.747 98.9897C264.705 98.9385 264.664 98.8976 264.622 98.8567C264.414 98.642 264.175 98.4478 263.945 98.2534C263.456 97.8239 262.977 97.3738 262.54 96.8831C262.54 96.8728 262.55 96.8728 262.55 96.8625C262.81 95.7273 263.258 94.6841 263.716 93.6104C264.018 92.9047 264.299 92.199 264.518 91.4729C264.705 90.8593 264.831 90.2356 264.966 89.6117C264.976 89.5811 264.935 89.5708 264.924 89.6014C264.57 90.8799 264.112 92.1378 263.591 93.3548C263.581 93.3548 263.56 93.3548 263.55 93.3751C263.508 93.508 263.467 93.6307 263.415 93.7637C263.175 94.3058 262.925 94.858 262.717 95.4205C262.696 95.4613 262.686 95.4922 262.665 95.5331C262.498 95.85 262.373 96.1877 262.269 96.5251C262.227 96.658 262.196 96.801 262.238 96.924C262.425 97.5682 262.79 98.1001 263.185 98.642C263.383 98.9182 263.581 99.1841 263.748 99.4704C263.904 99.726 264.06 99.9919 264.331 100.145C264.362 100.166 264.404 100.166 264.424 100.155C264.477 100.207 264.549 100.258 264.612 100.288C264.747 100.37 264.883 100.442 265.018 100.513C265.153 100.585 265.299 100.657 265.434 100.728C265.497 100.759 265.57 100.79 265.632 100.82C265.497 100.8 265.361 100.779 265.226 100.769C265.007 100.749 264.789 100.749 264.57 100.749C264.362 100.749 264.154 100.759 263.945 100.79C263.8 100.81 263.643 100.841 263.519 100.923C263.446 100.933 263.383 100.943 263.321 100.964C262.987 101.066 262.665 101.24 262.373 101.424C262.04 101.618 261.728 101.833 261.415 102.048C261.322 102.119 261.207 102.191 261.113 102.283C261.082 102.283 261.051 102.303 261.03 102.344C260.447 103.357 259.916 104.41 259.395 105.463C258.885 106.486 258.417 107.539 258 108.603C258 108.613 258.021 108.623 258.021 108.613C258.531 107.57 259.052 106.537 259.603 105.514C259.916 104.931 260.239 104.359 260.551 103.776C260.634 103.653 260.728 103.541 260.811 103.418C260.947 103.234 261.092 103.05 261.228 102.855C261.259 102.815 261.29 102.763 261.322 102.712C261.551 102.6 261.759 102.467 261.988 102.364C262.29 102.232 262.613 102.119 262.935 102.027C263.237 101.945 263.55 101.894 263.862 101.843C263.904 101.853 263.945 101.863 263.987 101.863C264.112 101.874 264.237 101.884 264.362 101.884C264.529 101.894 264.695 101.894 264.862 101.894C264.758 101.945 264.664 102.007 264.56 102.068C264.341 102.201 264.143 102.365 263.956 102.539C263.789 102.692 263.612 102.876 263.633 103.111C263.633 103.132 263.654 103.152 263.675 103.162C263.529 103.449 263.539 103.817 263.529 104.124C263.519 104.492 263.519 104.86 263.539 105.228C263.56 105.576 263.602 105.924 263.654 106.271C263.685 106.466 263.727 106.66 263.769 106.854C263.789 106.946 263.81 107.038 263.831 107.12C263.779 107.263 263.831 107.376 263.914 107.488C264.029 107.642 264.164 107.775 264.279 107.928C264.497 108.225 264.695 108.531 264.872 108.848C265.059 109.176 265.237 109.513 265.445 109.83C265.476 109.871 265.507 109.922 265.539 109.963C265.747 110.403 265.965 110.843 266.194 111.282C267.007 112.868 267.86 114.432 268.756 115.976C268.787 116.028 268.85 115.987 268.829 115.936C268.006 114.32 267.152 112.735 266.351 111.108C265.965 110.321 265.601 109.534 265.226 108.736C265.049 108.368 264.862 107.989 264.653 107.642C264.549 107.478 264.445 107.304 264.32 107.151C264.362 106.997 264.32 106.824 264.31 106.67C264.299 106.506 264.279 106.353 264.268 106.189C264.247 105.852 264.237 105.504 264.268 105.156C264.32 104.696 264.539 104.164 264.383 103.704C264.497 103.623 264.591 103.51 264.695 103.408C264.81 103.305 264.935 103.203 265.049 103.111C265.309 102.907 265.58 102.712 265.851 102.538C266.121 102.354 266.403 102.181 266.694 102.007C266.829 101.925 266.965 101.843 267.1 101.761C267.194 101.7 267.288 101.659 267.392 101.618C267.267 101.812 267.215 102.058 267.183 102.283C267.142 102.6 267.215 102.927 267.309 103.224C267.413 103.561 267.558 103.888 267.715 104.195C267.84 104.441 268.027 104.604 268.246 104.748C268.277 104.788 268.308 104.819 268.339 104.86C268.329 104.901 268.339 104.942 268.35 104.972C268.381 105.044 268.412 105.116 268.485 105.146C268.496 105.156 268.506 105.167 268.516 105.177C268.527 105.187 268.548 105.197 268.558 105.208C268.589 105.228 268.62 105.238 268.652 105.238C268.673 105.238 268.683 105.218 268.673 105.208C268.641 105.187 268.62 105.156 268.6 105.126C268.589 105.116 268.579 105.095 268.568 105.085V105.075C268.568 105.075 268.558 105.054 268.558 105.044C268.548 105.023 268.548 105.003 268.537 104.993C268.537 104.993 268.537 104.983 268.527 104.983C268.714 105.064 268.933 105.075 269.131 105.075C269.308 105.075 269.516 105.085 269.682 105.023C269.808 104.972 269.901 104.901 269.995 104.819C269.995 104.829 269.995 104.84 269.995 104.85C269.995 104.86 269.995 104.87 269.995 104.881C269.995 104.891 269.995 104.891 269.995 104.901C269.995 104.921 269.984 104.931 269.984 104.952V104.962C269.984 104.983 269.974 105.003 269.974 105.023V105.034V105.044C269.974 105.044 269.964 105.054 269.964 105.064C269.943 105.095 269.922 105.126 269.901 105.156C269.891 105.167 269.901 105.177 269.912 105.177C269.953 105.177 269.995 105.167 270.036 105.136C270.047 105.126 270.057 105.116 270.068 105.116L270.078 105.105C270.099 105.085 270.12 105.064 270.141 105.044C270.172 104.993 270.193 104.931 270.193 104.86C270.203 104.819 270.203 104.778 270.193 104.727C270.411 104.615 270.63 104.42 270.786 104.267C271.036 104.021 271.224 103.745 271.359 103.428C271.463 103.173 271.536 102.876 271.526 102.589C271.775 102.835 271.973 103.132 272.171 103.408C272.4 103.725 272.64 104.032 272.931 104.287C272.889 104.369 272.858 104.471 272.837 104.563C272.754 104.921 272.713 105.289 272.619 105.658C272.515 106.036 272.39 106.394 272.254 106.762C272.161 106.997 272.077 107.274 272.067 107.539C271.942 107.836 271.859 108.143 271.765 108.439C271.63 108.848 271.494 109.258 271.359 109.656C271.203 110.127 271.026 110.587 270.859 111.058C270.807 111.17 270.755 111.272 270.713 111.385C270.13 112.704 269.589 114.023 269.027 115.353C269.016 115.383 269.058 115.394 269.079 115.373C269.724 113.982 270.38 112.602 271.015 111.211C271.338 110.505 271.661 109.789 271.973 109.084C272.171 108.644 272.4 108.184 272.473 107.703C272.754 107.151 273.025 106.588 273.254 106.016C273.389 105.668 273.535 105.33 273.66 104.973C273.723 104.788 273.764 104.604 273.775 104.42C273.858 104.124 273.837 103.817 273.702 103.531C273.556 103.193 273.275 102.947 272.994 102.712C272.692 102.447 272.4 102.181 272.098 101.904C271.942 101.761 271.786 101.618 271.63 101.485C271.515 101.393 271.401 101.311 271.276 101.23C271.89 101.362 272.494 101.475 273.108 101.598C273.754 101.72 274.399 101.884 275.045 101.976C275.055 101.976 275.066 101.986 275.076 101.986C275.232 102.058 275.399 102.109 275.555 102.181C275.92 102.324 276.284 102.467 276.648 102.61C277.002 102.743 277.346 102.917 277.721 103.009C277.731 103.009 277.731 103.009 277.742 103.009C278.096 103.602 278.606 104.134 279.012 104.676C279.46 105.259 279.918 105.842 280.355 106.435C280.792 107.018 281.209 107.601 281.636 108.194C281.865 108.511 282.084 108.818 282.313 109.135C282.552 109.472 282.927 109.82 282.958 110.239C282.958 110.27 283 110.27 283 110.239C282.958 109.595 282.375 108.961 282.032 108.439ZM268.069 94.725C268.09 94.725 268.11 94.725 268.131 94.725C268.121 94.725 268.11 94.7353 268.1 94.7353C268.079 94.7353 268.079 94.725 268.069 94.725ZM269.818 88.5071C270.005 89.1513 270.318 89.755 270.578 90.3583C270.88 91.0637 271.182 91.7695 271.453 92.4855C271.713 93.15 271.921 93.8354 272.202 94.49C272.213 94.5103 272.223 94.5309 272.244 94.5409C272.254 94.5718 272.254 94.6024 272.265 94.6229C272.244 94.991 272.244 95.349 272.223 95.717C272.213 95.942 272.202 96.1671 272.192 96.3921C272.192 96.433 272.192 96.4842 272.192 96.5354C272.098 96.3 271.984 96.075 271.827 95.8808C271.848 95.8908 271.869 95.9011 271.89 95.9114C271.911 95.9217 271.932 95.8908 271.911 95.8808C271.89 95.8602 271.869 95.8399 271.848 95.8194C271.827 95.7991 271.807 95.7785 271.775 95.7579C271.755 95.7376 271.723 95.7273 271.703 95.707C271.682 95.6967 271.661 95.6864 271.651 95.6761C271.609 95.6455 271.578 95.6046 271.536 95.574C271.567 95.584 271.588 95.584 271.619 95.5943C271.64 95.5943 271.661 95.6046 271.692 95.6149C271.713 95.6252 271.734 95.6352 271.755 95.6455C271.775 95.6558 271.786 95.6252 271.765 95.6149C271.723 95.5943 271.682 95.5637 271.64 95.5431C271.599 95.5125 271.557 95.4922 271.515 95.4716C271.473 95.4513 271.432 95.4308 271.39 95.4102C271.369 95.4002 271.349 95.3899 271.328 95.3899C271.317 95.3899 271.307 95.3796 271.297 95.3796C271.276 95.3693 271.265 95.3693 271.245 95.3693C271.234 95.3593 271.224 95.3593 271.213 95.349C271.203 95.349 271.203 95.3387 271.192 95.3387C271.224 95.349 271.265 95.3593 271.297 95.3593C271.349 95.3693 271.401 95.3899 271.453 95.4102C271.473 95.4205 271.473 95.3899 271.463 95.3796C271.411 95.349 271.369 95.3184 271.317 95.2875C271.265 95.2672 271.213 95.2466 271.161 95.2263C271.109 95.2057 271.047 95.1854 270.995 95.1648C270.984 95.1648 270.974 95.1545 270.963 95.1545C270.911 95.1136 270.87 95.083 270.817 95.0421C270.828 95.0421 270.838 95.0421 270.849 95.0421C270.911 95.0524 270.974 95.0624 271.026 95.083C271.057 95.0933 271.088 95.0421 271.047 95.0216C270.984 94.991 270.922 94.9707 270.859 94.9501C270.828 94.9398 270.797 94.9298 270.765 94.9195C270.744 94.9195 270.734 94.9092 270.713 94.9092C270.692 94.9092 270.661 94.8989 270.641 94.9092C270.641 94.9092 270.63 94.9092 270.63 94.9195C270.609 94.8989 270.578 94.8886 270.557 94.8683C270.609 94.858 270.661 94.858 270.713 94.858C270.724 94.858 270.734 94.8377 270.724 94.8274C270.661 94.7968 270.599 94.7762 270.526 94.7659C270.495 94.7559 270.453 94.7559 270.422 94.7559C270.401 94.7559 270.38 94.7559 270.349 94.7559C270.276 94.725 270.203 94.6944 270.12 94.6738C270.13 94.6738 270.141 94.6738 270.151 94.6738C270.172 94.6738 270.193 94.6432 270.162 94.6229C270.13 94.6127 270.099 94.5921 270.068 94.5921C270.036 94.5821 269.995 94.5821 269.964 94.5821C269.922 94.5821 269.891 94.5821 269.849 94.5921C269.828 94.5921 269.818 94.6024 269.808 94.6024C269.797 94.6024 269.776 94.5921 269.766 94.5921C269.787 94.5921 269.808 94.5921 269.818 94.5821H269.828C269.849 94.5821 269.849 94.5512 269.839 94.5409C269.839 94.5409 269.828 94.5409 269.828 94.5309C269.808 94.5103 269.776 94.5103 269.755 94.5C269.724 94.5 269.703 94.49 269.672 94.49C269.62 94.49 269.578 94.5 269.537 94.5103C269.516 94.5 269.485 94.49 269.454 94.4797C269.401 94.4694 269.349 94.4491 269.308 94.4388C269.287 94.4285 269.276 94.4591 269.287 94.4797C269.308 94.49 269.328 94.5 269.339 94.5206C269.318 94.5206 269.297 94.5103 269.266 94.5103C269.245 94.5 269.235 94.5 269.214 94.49C269.183 94.4797 269.141 94.4694 269.1 94.4591C269.079 94.4491 269.047 94.4491 269.027 94.4491C269.089 92.2398 269.089 89.5093 269.089 86.9629C269.547 87.3719 269.651 87.9446 269.818 88.5071ZM269.224 76.3474C269.183 76.7157 269.152 77.094 269.11 77.462C269.11 76.9916 269.11 76.5109 269.11 76.0303C269.162 76.0611 269.224 76.0509 269.256 76.0203C269.245 76.1326 269.235 76.235 269.224 76.3474ZM269.183 75.9179C269.193 75.9179 269.193 75.9076 269.204 75.9076C269.193 75.9179 269.183 75.9179 269.183 75.9179ZM269.276 75.8361C269.276 75.8258 269.276 75.8258 269.266 75.8155C269.245 75.8464 269.224 75.877 269.204 75.9076C269.204 75.8973 269.172 75.8667 269.162 75.8361C269.141 75.8155 269.131 75.7952 269.11 75.7643C269.11 75.3145 269.11 74.8645 269.11 74.4247C269.214 74.5064 269.349 74.4964 269.433 74.4147C269.37 74.885 269.328 75.3657 269.276 75.8361ZM269.443 74.2817C269.297 74.3735 269.214 74.2714 269.11 74.1487C269.11 73.7089 269.1 73.2691 269.1 72.8396C269.224 73.0238 269.454 73.0747 269.589 72.9008C269.537 73.3715 269.485 73.8316 269.443 74.2817ZM269.61 72.7476C269.526 72.8088 269.433 72.86 269.339 72.8294C269.266 72.7988 269.183 72.7067 269.089 72.6146C269.089 72.2363 269.079 71.868 269.068 71.51C269.1 71.5409 269.12 71.5715 269.152 71.6021C269.381 71.8068 269.599 71.7247 269.735 71.5509C269.703 71.9498 269.651 72.3487 269.61 72.7476ZM269.953 70.0068C269.891 70.4465 269.828 70.8863 269.776 71.3261C269.516 71.6838 269.339 71.5715 269.068 71.2441C269.058 70.9066 269.058 70.5692 269.047 70.2521C269.349 70.5486 269.735 70.3239 269.953 70.0068ZM268.454 70.4568C268.61 70.6816 268.839 70.5077 268.974 70.3136C268.964 70.5692 268.964 70.8351 268.954 71.1114C268.954 71.1114 268.954 71.1114 268.954 71.1011C268.933 71.2852 268.922 71.5715 268.704 71.4794C268.641 71.1317 268.558 70.7943 268.454 70.4568ZM268.714 71.5409C268.798 71.6021 268.881 71.5918 268.954 71.5409C268.943 72.1645 268.933 72.8088 268.933 73.4736C268.881 72.8191 268.818 72.1748 268.714 71.5409ZM267.454 92.199C267.392 92.3422 267.33 92.4958 267.267 92.6387C267.319 92.5058 267.371 92.3628 267.413 92.2298C267.621 91.5956 267.777 90.9411 268.058 90.3377C268.329 89.755 268.641 89.2025 268.912 88.6197C268.912 90.6548 268.922 92.7105 268.974 94.4388C268.943 94.4388 268.912 94.4491 268.881 94.4491C268.85 94.4591 268.86 94.49 268.891 94.5C268.912 94.5 268.943 94.5103 268.964 94.5103C268.912 94.5103 268.87 94.5206 268.818 94.5309C268.787 94.5409 268.756 94.5409 268.725 94.5512C268.714 94.5512 268.704 94.5512 268.693 94.5512C268.683 94.5512 268.662 94.5512 268.652 94.5512C268.641 94.5512 268.631 94.5512 268.62 94.5512C268.61 94.5512 268.589 94.5409 268.568 94.5409C268.558 94.5409 268.548 94.5512 268.527 94.5512C268.516 94.5512 268.496 94.5512 268.485 94.5512C268.475 94.5512 268.454 94.5615 268.444 94.5615C268.433 94.5615 268.433 94.5821 268.444 94.5921C268.454 94.5921 268.475 94.6024 268.485 94.6024C268.496 94.6024 268.516 94.6024 268.527 94.6024C268.485 94.6127 268.433 94.633 268.392 94.6432C268.371 94.633 268.35 94.633 268.319 94.633C268.287 94.633 268.256 94.633 268.214 94.6432C268.183 94.6535 268.152 94.6535 268.121 94.6638C268.09 94.6738 268.069 94.6944 268.038 94.7147C268.027 94.725 268.038 94.7353 268.048 94.7353C268.027 94.7353 268.006 94.7353 267.985 94.7456C267.965 94.7456 267.954 94.7559 267.933 94.7659C267.902 94.7762 267.871 94.7865 267.829 94.7968C267.798 94.8068 267.756 94.8171 267.725 94.8377C267.694 94.858 267.663 94.8683 267.631 94.8886C267.621 94.8886 267.631 94.8989 267.631 94.8989C267.631 94.8989 267.631 94.8989 267.642 94.9092C267.642 94.9092 267.642 94.9195 267.652 94.9195C267.684 94.9092 267.715 94.8989 267.756 94.8989H267.767C267.694 94.9398 267.621 94.9707 267.548 95.0116C267.537 95.0116 267.527 95.0116 267.517 95.0116C267.475 95.0216 267.444 95.0216 267.402 95.0319C267.382 95.0421 267.361 95.0421 267.35 95.0524C267.33 95.0627 267.319 95.0727 267.309 95.083C267.298 95.0933 267.309 95.1036 267.319 95.1036C267.34 95.1036 267.35 95.1036 267.371 95.1036C267.35 95.1136 267.33 95.1342 267.309 95.1445C267.288 95.1445 267.277 95.1545 267.257 95.1545C267.225 95.1648 267.204 95.1751 267.173 95.1854C267.142 95.1954 267.121 95.216 267.09 95.2263C267.059 95.2466 267.079 95.2775 267.111 95.2775C267.1 95.2875 267.09 95.2875 267.079 95.2978C267.069 95.2978 267.059 95.3081 267.048 95.3081C267.038 95.3184 267.028 95.3184 267.017 95.3284C267.017 95.3284 267.007 95.3284 267.007 95.3387C266.996 95.3387 266.996 95.3387 267.007 95.3387C266.996 95.3387 266.996 95.349 266.986 95.349C266.955 95.3593 266.934 95.3693 266.913 95.3899C266.892 95.4002 266.861 95.4205 266.84 95.441C266.809 95.4613 266.84 95.5022 266.871 95.4922C266.871 95.4922 266.871 95.4922 266.882 95.4922C266.861 95.5125 266.84 95.5331 266.819 95.5534H266.809C266.767 95.5637 266.725 95.5843 266.694 95.5943C266.684 95.5943 266.684 95.6046 266.673 95.6046C266.663 95.6046 266.663 95.6149 266.653 95.6149C266.642 95.6252 266.622 95.6352 266.611 95.6455C266.601 95.6558 266.59 95.6761 266.59 95.6864C266.59 95.6967 266.59 95.717 266.59 95.7273C266.59 95.7479 266.611 95.7479 266.622 95.7376C266.632 95.7273 266.632 95.7273 266.642 95.7273C266.653 95.7273 266.653 95.717 266.663 95.717C266.382 96.0647 266.247 96.4945 266.132 96.9546C265.986 97.5476 265.84 98.2636 265.997 98.8773L265.986 98.867C265.913 98.7852 265.84 98.7137 265.767 98.6317C265.726 98.5908 265.695 98.5499 265.653 98.5193C265.643 98.509 265.622 98.4987 265.611 98.4784C265.663 98.4375 265.705 98.376 265.726 98.3148C265.82 98.0386 265.872 97.7524 265.913 97.4761C265.965 97.1796 266.017 96.8831 266.059 96.5763C266.08 96.433 266.111 96.2897 266.132 96.1365C266.153 96.0238 266.163 95.8908 266.215 95.7888C266.33 95.717 266.403 95.5843 266.444 95.441C266.559 95.0933 266.663 94.7456 266.777 94.3979C267.007 93.6719 267.246 92.9456 267.475 92.2093C267.475 92.199 267.465 92.1889 267.454 92.199Z" fill="black"/>
</g>
</g>
<defs>
<linearGradient id="paint0_linear_122_533" x1="294.234" y1="51.5925" x2="58.9672" y2="286.952" gradientUnits="userSpaceOnUse">
<stop stop-color="#FFFB90"/>
<stop offset="0.14" stop-color="#FBEA78"/>
<stop offset="0.24" stop-color="#F8DC65"/>
<stop offset="0.27" stop-color="#E6C758"/>
<stop offset="0.34" stop-color="#C5A041"/>
<stop offset="0.4" stop-color="#AD8330"/>
<stop offset="0.45" stop-color="#9E7226"/>
<stop offset="0.49" stop-color="#996C22"/>
<stop offset="0.52" stop-color="#9D7126"/>
<stop offset="0.56" stop-color="#AA8131"/>
<stop offset="0.6" stop-color="#BE9B42"/>
<stop offset="0.64" stop-color="#DABE5B"/>
<stop offset="0.69" stop-color="#FBE878"/>
<stop offset="0.77" stop-color="#FFFFAA"/>
<stop offset="0.83" stop-color="#FBE878"/>
<stop offset="1" stop-color="#A4631B"/>
</linearGradient>
<linearGradient id="paint1_linear_122_533" x1="69.8502" y1="70.5534" x2="287.87" y2="288.659" gradientUnits="userSpaceOnUse">
<stop stop-color="#FFFB90"/>
<stop offset="0.14" stop-color="#FBEA78"/>
<stop offset="0.24" stop-color="#F8DC65"/>
<stop offset="0.27" stop-color="#E6C758"/>
<stop offset="0.34" stop-color="#C5A041"/>
<stop offset="0.4" stop-color="#AD8330"/>
<stop offset="0.45" stop-color="#9E7226"/>
<stop offset="0.49" stop-color="#996C22"/>
<stop offset="0.52" stop-color="#9D7126"/>
<stop offset="0.56" stop-color="#AA8131"/>
<stop offset="0.6" stop-color="#BE9B42"/>
<stop offset="0.64" stop-color="#DABE5B"/>
<stop offset="0.69" stop-color="#FBE878"/>
<stop offset="0.77" stop-color="#FFFFAA"/>
<stop offset="0.83" stop-color="#FBE878"/>
<stop offset="1" stop-color="#A4631B"/>
</linearGradient>
<radialGradient id="paint2_radial_122_533" cx="0" cy="0" r="1" gradientUnits="userSpaceOnUse" gradientTransform="translate(172.543 173.205) scale(140.831 140.775)">
<stop offset="0.37" stop-color="#FFEAB9"/>
<stop offset="0.55" stop-color="#FEE8B7"/>
<stop offset="0.65" stop-color="#FBDFAE"/>
<stop offset="0.73" stop-color="#F6D1A1"/>
<stop offset="0.8" stop-color="#EEBD8D"/>
<stop offset="0.84" stop-color="#E9AF7F"/>
<stop offset="0.93" stop-color="#A57761"/>
<stop offset="0.94" stop-color="#AD7F64"/>
<stop offset="0.97" stop-color="#C3956B"/>
<stop offset="0.99" stop-color="#E7BA76"/>
<stop offset="1" stop-color="#F5C87B"/>
</radialGradient>
<radialGradient id="paint3_radial_122_533" cx="0" cy="0" r="1" gradientUnits="userSpaceOnUse" gradientTransform="translate(172.155 173.19) scale(140.04 139.985)">
<stop offset="0.37" stop-color="#FFADAC"/>
<stop offset="0.44" stop-color="#FD9FA3"/>
<stop offset="0.56" stop-color="#F67B8D"/>
<stop offset="0.72" stop-color="#EB4069"/>
<stop offset="0.88" stop-color="#E00041"/>
<stop offset="0.9" stop-color="#E10643"/>
<stop offset="0.92" stop-color="#E51748"/>
<stop offset="0.95" stop-color="#EB3351"/>
<stop offset="0.97" stop-color="#F45A5E"/>
<stop offset="1" stop-color="#FF8B6E"/>
</radialGradient>
<radialGradient id="paint4_radial_122_533" cx="0" cy="0" r="1" gradientUnits="userSpaceOnUse" gradientTransform="translate(172.155 173.19) scale(140.04 139.985)">
<stop offset="0.37" stop-color="#FFADAC"/>
<stop offset="0.44" stop-color="#FD9FA3"/>
<stop offset="0.56" stop-color="#F67B8D"/>
<stop offset="0.72" stop-color="#EB4069"/>
<stop offset="0.88" stop-color="#E00041"/>
<stop offset="0.9" stop-color="#E10643"/>
<stop offset="0.92" stop-color="#E51748"/>
<stop offset="0.95" stop-color="#EB3351"/>
<stop offset="0.97" stop-color="#F45A5E"/>
<stop offset="1" stop-color="#FF8B6E"/>
</radialGradient>
<radialGradient id="paint5_radial_122_533" cx="0" cy="0" r="1" gradientUnits="userSpaceOnUse" gradientTransform="translate(172.156 173.19) scale(140.04 139.985)">
<stop offset="0.37" stop-color="#FFADAC"/>
<stop offset="0.44" stop-color="#FD9FA3"/>
<stop offset="0.56" stop-color="#F67B8D"/>
<stop offset="0.72" stop-color="#EB4069"/>
<stop offset="0.88" stop-color="#E00041"/>
<stop offset="0.9" stop-color="#E10643"/>
<stop offset="0.92" stop-color="#E51748"/>
<stop offset="0.95" stop-color="#EB3351"/>
<stop offset="0.97" stop-color="#F45A5E"/>
<stop offset="1" stop-color="#FF8B6E"/>
</radialGradient>
<linearGradient id="paint6_linear_122_533" x1="173.96" y1="40.3145" x2="173.96" y2="-10.054" gradientUnits="userSpaceOnUse">
<stop stop-color="#FFFB90"/>
<stop offset="0.14" stop-color="#FBEA78"/>
<stop offset="0.24" stop-color="#F8DC65"/>
<stop offset="0.27" stop-color="#E6C758"/>
<stop offset="0.34" stop-color="#C5A041"/>
<stop offset="0.4" stop-color="#AD8330"/>
<stop offset="0.45" stop-color="#9E7226"/>
<stop offset="0.49" stop-color="#996C22"/>
<stop offset="0.52" stop-color="#9D7126"/>
<stop offset="0.56" stop-color="#AA8131"/>
<stop offset="0.6" stop-color="#BE9B42"/>
<stop offset="0.64" stop-color="#DABE5B"/>
<stop offset="0.69" stop-color="#FBE878"/>
<stop offset="0.77" stop-color="#FFFFAA"/>
<stop offset="0.83" stop-color="#FBE878"/>
<stop offset="1" stop-color="#A4631B"/>
</linearGradient>
<linearGradient id="paint7_linear_122_533" x1="144.046" y1="201.69" x2="209.589" y2="136.136" gradientUnits="userSpaceOnUse">
<stop stop-color="#FFFB90"/>
<stop offset="0.14" stop-color="#FBEA78"/>
<stop offset="0.24" stop-color="#F8DC65"/>
<stop offset="0.27" stop-color="#E6C758"/>
<stop offset="0.34" stop-color="#C5A041"/>
<stop offset="0.4" stop-color="#AD8330"/>
<stop offset="0.45" stop-color="#9E7226"/>
<stop offset="0.49" stop-color="#996C22"/>
<stop offset="0.52" stop-color="#9D7126"/>
<stop offset="0.56" stop-color="#AA8131"/>
<stop offset="0.6" stop-color="#BE9B42"/>
<stop offset="0.64" stop-color="#DABE5B"/>
<stop offset="0.69" stop-color="#FBE878"/>
<stop offset="0.77" stop-color="#FFFFAA"/>
<stop offset="0.83" stop-color="#FBE878"/>
<stop offset="1" stop-color="#A4631B"/>
</linearGradient>
<clipPath id="clip0_122_533">
<rect width="345" height="163" fill="white"/>
</clipPath>
</defs>
</svg>
