<svg width="345" height="163" viewBox="0 0 345 163" fill="none" xmlns="http://www.w3.org/2000/svg">
<g clip-path="url(#clip0_122_650)">
<mask id="mask0_122_650" style="mask-type:luminance" maskUnits="userSpaceOnUse" x="-67" y="-28" width="496" height="208">
<path d="M428.705 -27.1665H-66.7378V179.331H428.705V-27.1665Z" fill="white"/>
</mask>
<g mask="url(#mask0_122_650)">
<path d="M285.425 286.05C347.766 223.733 347.766 122.697 285.425 60.3801C223.083 -1.93678 122.008 -1.93677 59.6666 60.3801C-2.67475 122.697 -2.67476 223.733 59.6666 286.05C122.008 348.366 223.083 348.366 285.425 286.05Z" fill="url(#paint0_linear_122_650)"/>
<path d="M274.332 274.961C330.547 218.768 330.547 127.661 274.332 71.4686C218.117 15.2757 126.974 15.2757 70.7593 71.4686C14.5444 127.661 14.5444 218.768 70.7593 274.961C126.974 331.154 218.117 331.154 274.332 274.961Z" fill="url(#paint1_linear_122_650)"/>
<path d="M313.374 173.205C313.38 201.049 305.125 228.269 289.654 251.423C274.183 274.578 252.19 292.626 226.457 303.286C200.725 313.945 172.407 316.737 145.087 311.309C117.766 305.88 92.6699 292.475 72.9714 272.788C53.2729 253.102 39.8571 228.018 34.4207 200.709C28.9843 173.401 31.7714 145.094 42.4297 119.369C53.088 93.6438 71.1386 71.6559 94.2987 56.186C117.459 40.7161 144.688 32.459 172.543 32.459C209.889 32.459 245.705 47.2866 272.115 73.6806C298.525 100.075 313.366 135.874 313.374 173.205Z" fill="url(#paint2_radial_122_650)"/>
<g style="mix-blend-mode:multiply">
<path d="M275.02 76.6714L172.543 173.205L307.469 132.764C301.173 111.794 290.061 92.5858 275.02 76.6714Z" fill="url(#paint3_radial_122_650)"/>
<path d="M37.6475 132.764L172.558 173.205L70.0666 76.6714C55.0405 92.5922 43.9396 111.799 37.6475 132.764Z" fill="url(#paint4_radial_122_650)"/>
<path d="M172.543 32.459C161.633 32.4507 150.758 33.7114 140.139 36.2154L172.543 173.22L204.962 36.1856C194.336 33.6993 183.457 32.4488 172.543 32.459Z" fill="url(#paint5_radial_122_650)"/>
</g>
<path d="M168.785 71.0215H178.582V73.7941H170.918V75.6872H168.785V71.0215Z" fill="#FDEF9A"/>
<path d="M178.18 67.4738C177.751 68.131 177.139 68.649 176.42 68.9644C175.557 69.3461 174.62 69.5344 173.677 69.516C172.737 69.5341 171.806 69.3458 170.948 68.9644C170.229 68.649 169.617 68.131 169.188 67.4738C168.795 66.794 168.589 66.0228 168.589 65.2379C168.589 64.4529 168.795 63.6817 169.188 63.0019C169.617 62.3447 170.229 61.8267 170.948 61.5113C171.806 61.1299 172.737 60.9416 173.677 60.9597C174.62 60.9413 175.557 61.1296 176.42 61.5113C177.139 61.8267 177.751 62.3447 178.18 63.0019C178.573 63.6817 178.779 64.4529 178.779 65.2379C178.779 66.0228 178.573 66.794 178.18 67.4738ZM175.839 64.1199C174.456 63.5636 172.912 63.5636 171.529 64.1199C171.326 64.2279 171.157 64.389 171.039 64.586C170.921 64.7829 170.858 65.0082 170.858 65.2379C170.858 65.4675 170.921 65.6928 171.039 65.8897C171.157 66.0867 171.326 66.2478 171.529 66.3558C172.912 66.9121 174.456 66.9121 175.839 66.3558C176.042 66.2478 176.211 66.0867 176.329 65.8897C176.447 65.6928 176.51 65.4675 176.51 65.2379C176.51 65.0082 176.447 64.7829 176.329 64.586C176.211 64.389 176.042 64.2279 175.839 64.1199Z" fill="#FDEF9A"/>
<path d="M177.628 52.5076C178.24 53.1755 178.622 54.0218 178.717 54.9225H180.208V56.6069H178.717C178.677 57.2796 178.557 57.9451 178.359 58.5894C178.202 59.119 177.966 59.6216 177.658 60.0801L175.66 59.29C175.958 58.8258 176.193 58.3247 176.361 57.7994C176.535 57.2495 176.625 56.6767 176.629 56.1001C176.629 55.0268 176.361 54.4902 175.824 54.4902C175.684 54.4926 175.549 54.5383 175.437 54.6212C175.325 54.704 175.241 54.8197 175.198 54.9523C175.013 55.4354 174.874 55.9343 174.78 56.4429C174.654 57.0715 174.479 57.6894 174.258 58.2913C174.082 58.7845 173.785 59.2254 173.393 59.5732C172.932 59.9367 172.355 60.1219 171.768 60.095C171.381 60.1006 170.998 60.0267 170.642 59.878C170.285 59.7293 169.963 59.5088 169.695 59.2304C169.075 58.5353 168.703 57.6548 168.636 56.7261H167.145V54.9225H168.636C168.694 54.4193 168.789 53.9211 168.92 53.4318C169.052 52.9796 169.238 52.5444 169.471 52.135L171.529 52.9846C171.052 53.8107 170.79 54.7438 170.769 55.6976C170.741 56.1157 170.828 56.5335 171.022 56.905C171.084 57.0175 171.174 57.1114 171.284 57.177C171.395 57.2425 171.52 57.2773 171.649 57.2777C171.782 57.2746 171.912 57.2298 172.018 57.1496C172.125 57.0695 172.205 56.9579 172.245 56.8305C172.432 56.3492 172.567 55.8496 172.648 55.3398C172.777 54.7135 172.946 54.0961 173.155 53.4915C173.342 53.0046 173.644 52.5701 174.034 52.2244C174.253 52.0312 174.508 51.883 174.785 51.7883C175.061 51.6937 175.353 51.6545 175.645 51.6729C176.014 51.6738 176.38 51.748 176.72 51.8913C177.061 52.0346 177.369 52.2441 177.628 52.5076Z" fill="#FDEF9A"/>
<path d="M168.785 71.0215H178.582V73.7941H170.918V75.6872H168.785V71.0215Z" fill="#FDEF9A"/>
<path d="M178.18 67.4738C177.751 68.131 177.139 68.649 176.42 68.9644C175.557 69.3461 174.62 69.5344 173.677 69.516C172.737 69.5341 171.806 69.3458 170.948 68.9644C170.229 68.649 169.617 68.131 169.188 67.4738C168.795 66.794 168.589 66.0228 168.589 65.2379C168.589 64.4529 168.795 63.6817 169.188 63.0019C169.617 62.3447 170.229 61.8267 170.948 61.5113C171.806 61.1299 172.737 60.9416 173.677 60.9597C174.62 60.9413 175.557 61.1296 176.42 61.5113C177.139 61.8267 177.751 62.3447 178.18 63.0019C178.573 63.6817 178.779 64.4529 178.779 65.2379C178.779 66.0228 178.573 66.794 178.18 67.4738ZM175.839 64.1199C174.456 63.5636 172.912 63.5636 171.529 64.1199C171.326 64.2279 171.157 64.389 171.039 64.586C170.921 64.7829 170.858 65.0082 170.858 65.2379C170.858 65.4675 170.921 65.6928 171.039 65.8897C171.157 66.0867 171.326 66.2478 171.529 66.3558C172.912 66.9121 174.456 66.9121 175.839 66.3558C176.042 66.2478 176.211 66.0867 176.329 65.8897C176.447 65.6928 176.51 65.4675 176.51 65.2379C176.51 65.0082 176.447 64.7829 176.329 64.586C176.211 64.389 176.042 64.2279 175.839 64.1199Z" fill="#FDEF9A"/>
<path d="M177.628 52.5076C178.24 53.1755 178.622 54.0218 178.717 54.9225H180.208V56.6069H178.717C178.677 57.2796 178.557 57.9451 178.359 58.5894C178.202 59.119 177.966 59.6216 177.658 60.0801L175.66 59.29C175.958 58.8258 176.193 58.3247 176.361 57.7994C176.535 57.2495 176.625 56.6767 176.629 56.1001C176.629 55.0268 176.361 54.4902 175.824 54.4902C175.684 54.4926 175.549 54.5383 175.437 54.6212C175.325 54.704 175.241 54.8197 175.198 54.9523C175.013 55.4354 174.874 55.9343 174.78 56.4429C174.654 57.0715 174.479 57.6894 174.258 58.2913C174.082 58.7845 173.785 59.2254 173.393 59.5732C172.932 59.9367 172.355 60.1219 171.768 60.095C171.381 60.1006 170.998 60.0267 170.642 59.878C170.285 59.7293 169.963 59.5088 169.695 59.2304C169.075 58.5353 168.703 57.6548 168.636 56.7261H167.145V54.9225H168.636C168.694 54.4193 168.789 53.9211 168.92 53.4318C169.052 52.9796 169.238 52.5444 169.471 52.135L171.529 52.9846C171.052 53.8107 170.79 54.7438 170.769 55.6976C170.741 56.1157 170.828 56.5335 171.022 56.905C171.084 57.0175 171.174 57.1114 171.284 57.177C171.395 57.2425 171.52 57.2773 171.649 57.2777C171.782 57.2746 171.912 57.2298 172.018 57.1496C172.125 57.0695 172.205 56.9579 172.245 56.8305C172.432 56.3492 172.567 55.8496 172.648 55.3398C172.777 54.7135 172.946 54.0961 173.155 53.4915C173.342 53.0046 173.644 52.5701 174.034 52.2244C174.253 52.0312 174.508 51.883 174.785 51.7883C175.061 51.6937 175.353 51.6545 175.645 51.6729C176.014 51.6738 176.38 51.748 176.72 51.8913C177.061 52.0346 177.369 52.2441 177.628 52.5076Z" fill="#FDEF9A"/>
<path d="M272.022 120.6L273.111 122.493L266.49 126.369L265.625 124.878L267.116 120.078C267.245 119.705 267.306 119.311 267.295 118.915C267.288 118.665 267.221 118.42 267.101 118.2C267.036 118.074 266.943 117.964 266.83 117.879C266.716 117.793 266.585 117.735 266.445 117.708C266.114 117.681 265.784 117.765 265.506 117.947C265.2 118.117 264.943 118.363 264.76 118.662C264.572 118.957 264.469 119.297 264.462 119.646H262.106C262.119 118.899 262.341 118.171 262.747 117.544C263.229 116.864 263.868 116.312 264.611 115.934C265.19 115.585 265.835 115.356 266.505 115.263C267.076 115.182 267.659 115.259 268.19 115.487C268.702 115.728 269.125 116.124 269.398 116.62C269.664 117.074 269.818 117.585 269.845 118.11C269.853 118.806 269.737 119.498 269.502 120.153L268.742 122.567L272.022 120.6Z" fill="#FDEF9A"/>
<path d="M279.807 117.559C279.553 118.416 279.03 119.169 278.315 119.706L279.091 121.047L277.6 121.882L276.854 120.585C276.253 120.887 275.617 121.113 274.96 121.256C274.406 121.4 273.832 121.455 273.26 121.42L273.022 119.199C273.583 119.228 274.145 119.178 274.692 119.05C275.262 118.925 275.81 118.714 276.317 118.424C277.242 117.902 277.57 117.395 277.301 116.933C277.231 116.815 277.125 116.722 277 116.666C276.875 116.61 276.735 116.594 276.6 116.62C276.096 116.705 275.598 116.824 275.109 116.978C274.505 117.173 273.887 117.323 273.26 117.425C272.761 117.503 272.25 117.462 271.769 117.306C271.219 117.093 270.767 116.684 270.501 116.158C270.304 115.827 270.178 115.458 270.132 115.076C270.085 114.693 270.12 114.305 270.233 113.937C270.498 113.078 271.038 112.329 271.769 111.805L270.993 110.464L272.485 109.629L273.23 110.941C273.71 110.72 274.209 110.545 274.722 110.419C275.18 110.304 275.651 110.244 276.123 110.24L276.407 112.461C275.453 112.454 274.514 112.69 273.678 113.147C273.301 113.332 272.982 113.615 272.753 113.967C272.69 114.078 272.657 114.204 272.657 114.332C272.657 114.46 272.69 114.586 272.753 114.697C272.823 114.811 272.927 114.9 273.049 114.953C273.172 115.007 273.308 115.021 273.439 114.995C273.945 114.912 274.444 114.787 274.93 114.623C275.539 114.417 276.162 114.257 276.794 114.146C277.294 114.066 277.805 114.107 278.286 114.265C278.834 114.472 279.286 114.875 279.553 115.398C279.741 115.721 279.861 116.08 279.905 116.452C279.948 116.824 279.915 117.201 279.807 117.559Z" fill="#FDEF9A"/>
<path d="M77.6121 122.642L82.5778 114.175L84.9638 115.666L81.0866 122.269L82.6673 123.194L81.5787 125.042L77.6121 122.642Z" fill="#FDEF9A"/>
<path d="M74.3912 110.493C75.2736 110.301 76.1948 110.4 77.0157 110.777L77.8061 109.435L79.2973 110.285L78.5367 111.582C79.0784 111.965 79.5782 112.405 80.028 112.893C80.4239 113.309 80.7557 113.781 81.0122 114.295L79.1929 115.591C78.6753 114.571 77.8791 113.718 76.8964 113.132C75.9719 112.595 75.4052 112.55 75.107 113.013C75.0319 113.125 74.9919 113.257 74.9919 113.393C74.9919 113.528 75.0319 113.66 75.107 113.773C75.4319 114.171 75.7857 114.545 76.1657 114.891C76.6395 115.316 77.083 115.775 77.4929 116.262C77.8312 116.663 78.0575 117.147 78.149 117.663C78.277 118.23 78.192 118.824 77.9104 119.333C77.7189 119.666 77.4614 119.957 77.1538 120.188C76.8461 120.418 76.4947 120.584 76.121 120.674C75.2111 120.85 74.2689 120.724 73.4368 120.317L72.6614 121.643L71.1701 120.794L71.9456 119.497C71.518 119.19 71.1188 118.846 70.7526 118.468C70.4252 118.126 70.1399 117.745 69.9026 117.335L71.6921 115.994C72.1585 116.826 72.8312 117.524 73.6456 118.021C73.9884 118.261 74.3911 118.4 74.8087 118.424C74.9379 118.427 75.0658 118.396 75.1787 118.333C75.2916 118.27 75.3853 118.178 75.4499 118.066C75.5243 117.959 75.5642 117.831 75.5642 117.701C75.5642 117.57 75.5243 117.443 75.4499 117.335C75.1328 116.944 74.7836 116.58 74.4061 116.247C73.9242 115.825 73.4755 115.367 73.064 114.876C72.7378 114.465 72.5084 113.986 72.3929 113.475C72.3006 112.893 72.4282 112.298 72.7508 111.805C72.9246 111.49 73.159 111.211 73.4404 110.986C73.7219 110.761 74.045 110.594 74.3912 110.493Z" fill="#FDEF9A"/>
<g style="mix-blend-mode:multiply">
<path d="M220.903 97.2867L222.797 98.3898L218.398 105.977L216.907 105.113L214.312 97.8979L211.896 102.057L209.973 101.028L214.208 93.7241L215.699 94.6036L218.294 101.818L220.903 97.2867Z" fill="#690101"/>
<path d="M225.541 89.446L227.405 90.5193L223.453 97.3315L214.968 92.4124L218.831 85.7642L220.68 86.8374L218.204 91.1155L219.695 91.9503L221.873 88.179L223.662 89.2224L221.485 92.9788L222.976 93.8881L225.541 89.446Z" fill="#690101"/>
<path d="M228.016 84.184L227.271 85.4958L229.522 86.7926L228.121 89.1925L219.651 84.2735L221.887 80.3978C222.258 79.7109 222.766 79.1071 223.379 78.624C223.915 78.2223 224.559 77.9889 225.228 77.9532C225.892 77.9376 226.548 78.1027 227.126 78.4309C227.704 78.759 228.182 79.2379 228.508 79.8165C228.81 80.3829 228.935 81.0268 228.866 81.6648L232.594 81.3816L231.103 83.9455L228.016 84.184ZM224.676 80.7108C224.25 80.8943 223.902 81.2214 223.692 81.635L222.931 82.9766L225.407 84.4672L226.182 83.1406C226.437 82.7588 226.553 82.3008 226.51 81.8437C226.47 81.649 226.386 81.4659 226.265 81.3084C226.143 81.1508 225.987 81.023 225.809 80.9344C225.649 80.8161 225.464 80.7347 225.268 80.6961C225.072 80.6574 224.87 80.6625 224.676 80.7108Z" fill="#690101"/>
<path d="M234.011 78.1322C233.242 78.6185 232.356 78.8865 231.446 78.9073C230.528 78.9242 229.623 78.6813 228.837 78.2067C228.032 77.7529 227.367 77.088 226.913 76.2838C226.484 75.4888 226.278 74.5926 226.316 73.6901C226.367 72.7215 226.654 71.7801 227.151 70.9473C227.622 70.0975 228.299 69.3798 229.12 68.8604C229.897 68.3784 230.793 68.123 231.707 68.123C232.621 68.123 233.518 68.3784 234.294 68.8604C235.098 69.3102 235.759 69.9764 236.203 70.7833C236.641 71.575 236.848 72.4737 236.8 73.377C236.743 74.3435 236.462 75.2835 235.978 76.122C235.493 76.9605 234.82 77.6744 234.011 78.2067V78.1322ZM234.354 73.5559C234.355 73.0924 234.226 72.6379 233.981 72.2442C233.714 71.8089 233.339 71.4496 232.893 71.2007C232.44 70.9332 231.927 70.7845 231.401 70.7684C230.938 70.7621 230.481 70.875 230.074 71.0964C229.665 71.3384 229.326 71.6826 229.09 72.0951C228.849 72.5014 228.721 72.9644 228.717 73.4367C228.721 73.9015 228.856 74.3559 229.105 74.7484C229.373 75.1825 229.742 75.545 230.181 75.8047C230.62 76.0643 231.116 76.2134 231.625 76.2391C232.095 76.2618 232.561 76.1479 232.967 75.9111C233.378 75.6824 233.714 75.341 233.937 74.9273C234.201 74.5181 234.346 74.043 234.354 73.5559Z" fill="#690101"/>
<path d="M118.173 75.941C118.251 75.5194 118.426 75.1218 118.685 74.7801C118.944 74.4383 119.279 74.1621 119.664 73.9734C120.176 73.6806 120.76 73.536 121.35 73.556C121.985 73.5984 122.595 73.8207 123.109 74.197C123.76 74.6917 124.294 75.3225 124.675 76.0454C125.02 76.6442 125.286 77.2857 125.465 77.9534C125.648 78.5569 125.729 79.1866 125.704 79.8167L123.407 79.9807C123.434 79.5054 123.394 79.0287 123.288 78.5646C123.177 78.0955 123.001 77.644 122.766 77.223C122.588 76.8671 122.314 76.5678 121.976 76.3584C121.842 76.2812 121.69 76.2406 121.536 76.2406C121.381 76.2406 121.23 76.2812 121.096 76.3584C120.961 76.4271 120.848 76.5317 120.769 76.6606C120.69 76.7895 120.649 76.9377 120.649 77.0888C120.694 77.6217 120.874 78.1345 121.171 78.5795L122.483 80.8899L117.249 83.2899L114.177 77.849L116.041 76.7907L117.979 80.2341L119.292 79.6378L118.964 79.0714C118.336 78.1552 118.056 77.0452 118.173 75.941Z" fill="#690101"/>
<path d="M117.502 65.7151C118.353 65.9741 119.099 66.496 119.635 67.2057L120.992 66.4455L121.812 67.9361L120.514 68.6665C120.797 69.293 121.012 69.9475 121.156 70.6193C121.28 71.1766 121.331 71.748 121.305 72.3186L119.068 72.5422C119.102 71.9821 119.057 71.4201 118.934 70.8727C118.807 70.3051 118.601 69.7582 118.322 69.2479C117.8 68.3237 117.293 67.9957 116.831 68.2492C116.714 68.3199 116.62 68.425 116.564 68.5503C116.508 68.6755 116.492 68.815 116.518 68.9498C116.587 69.456 116.702 69.9549 116.861 70.4404C117.067 71.0486 117.226 71.6714 117.338 72.3037C117.413 72.8041 117.367 73.3152 117.204 73.7943C116.985 74.3403 116.578 74.7898 116.056 75.0614C115.72 75.2533 115.348 75.3748 114.963 75.4183C114.579 75.4619 114.189 75.4267 113.819 75.3148C112.934 75.0258 112.176 74.4416 111.672 73.6602L110.329 74.4204L109.494 72.9297L110.822 72.1844C110.601 71.7052 110.426 71.2061 110.3 70.6938C110.182 70.2363 110.126 69.7649 110.136 69.2926L112.343 69.0243C112.343 69.9762 112.578 70.9134 113.029 71.7521C113.204 72.13 113.483 72.4505 113.834 72.6763C113.946 72.7465 114.075 72.7837 114.207 72.7837C114.339 72.7837 114.468 72.7465 114.579 72.6763C114.691 72.608 114.778 72.5066 114.829 72.3863C114.88 72.2661 114.891 72.1329 114.863 72.0055C114.795 71.4977 114.675 70.9982 114.505 70.5149C114.305 69.9061 114.15 69.2833 114.043 68.6516C113.962 68.1524 114.003 67.6412 114.162 67.161C114.366 66.6058 114.778 66.1515 115.31 65.8939C115.643 65.7137 116.01 65.6048 116.387 65.574C116.765 65.5432 117.144 65.5912 117.502 65.7151Z" fill="#690101"/>
</g>
<path d="M173.96 46.4112L183.772 29.418H164.147L173.96 46.4112Z" fill="url(#paint6_linear_122_650)"/>
<path d="M172.543 134.657C180.174 134.657 187.633 136.919 193.977 141.157C200.322 145.395 205.266 151.418 208.186 158.465C211.105 165.513 211.868 173.267 210.379 180.748C208.889 188.229 205.213 195.1 199.816 200.493C194.42 205.885 187.544 209.557 180.06 211.043C172.576 212.529 164.819 211.763 157.77 208.842C150.721 205.921 144.697 200.976 140.46 194.633C136.222 188.289 133.962 180.832 133.965 173.204C133.965 168.141 134.963 163.127 136.902 158.449C138.841 153.772 141.683 149.521 145.265 145.942C148.848 142.362 153.101 139.523 157.781 137.587C162.462 135.65 167.478 134.655 172.543 134.657ZM172.543 133.762C164.739 133.762 157.11 136.075 150.622 140.409C144.133 144.743 139.075 150.903 136.089 158.111C133.103 165.318 132.321 173.248 133.844 180.899C135.366 188.55 139.124 195.578 144.642 201.094C150.161 206.61 157.191 210.367 164.845 211.889C172.499 213.411 180.433 212.63 187.643 209.644C194.853 206.659 201.015 201.604 205.351 195.117C209.687 188.631 212.001 181.005 212.001 173.204C211.973 162.758 207.805 152.748 200.41 145.366C193.014 137.985 182.994 133.834 172.543 133.822V133.762Z" fill="url(#paint7_linear_122_650)"/>
</g>
</g>
<defs>
<linearGradient id="paint0_linear_122_650" x1="294.234" y1="51.5925" x2="58.9672" y2="286.952" gradientUnits="userSpaceOnUse">
<stop stop-color="#FFFB90"/>
<stop offset="0.14" stop-color="#FBEA78"/>
<stop offset="0.24" stop-color="#F8DC65"/>
<stop offset="0.27" stop-color="#E6C758"/>
<stop offset="0.34" stop-color="#C5A041"/>
<stop offset="0.4" stop-color="#AD8330"/>
<stop offset="0.45" stop-color="#9E7226"/>
<stop offset="0.49" stop-color="#996C22"/>
<stop offset="0.52" stop-color="#9D7126"/>
<stop offset="0.56" stop-color="#AA8131"/>
<stop offset="0.6" stop-color="#BE9B42"/>
<stop offset="0.64" stop-color="#DABE5B"/>
<stop offset="0.69" stop-color="#FBE878"/>
<stop offset="0.77" stop-color="#FFFFAA"/>
<stop offset="0.83" stop-color="#FBE878"/>
<stop offset="1" stop-color="#A4631B"/>
</linearGradient>
<linearGradient id="paint1_linear_122_650" x1="69.8502" y1="70.5534" x2="287.87" y2="288.659" gradientUnits="userSpaceOnUse">
<stop stop-color="#FFFB90"/>
<stop offset="0.14" stop-color="#FBEA78"/>
<stop offset="0.24" stop-color="#F8DC65"/>
<stop offset="0.27" stop-color="#E6C758"/>
<stop offset="0.34" stop-color="#C5A041"/>
<stop offset="0.4" stop-color="#AD8330"/>
<stop offset="0.45" stop-color="#9E7226"/>
<stop offset="0.49" stop-color="#996C22"/>
<stop offset="0.52" stop-color="#9D7126"/>
<stop offset="0.56" stop-color="#AA8131"/>
<stop offset="0.6" stop-color="#BE9B42"/>
<stop offset="0.64" stop-color="#DABE5B"/>
<stop offset="0.69" stop-color="#FBE878"/>
<stop offset="0.77" stop-color="#FFFFAA"/>
<stop offset="0.83" stop-color="#FBE878"/>
<stop offset="1" stop-color="#A4631B"/>
</linearGradient>
<radialGradient id="paint2_radial_122_650" cx="0" cy="0" r="1" gradientUnits="userSpaceOnUse" gradientTransform="translate(172.543 173.205) scale(140.831 140.775)">
<stop offset="0.37" stop-color="#FFEAB9"/>
<stop offset="0.55" stop-color="#FEE8B7"/>
<stop offset="0.65" stop-color="#FBDFAE"/>
<stop offset="0.73" stop-color="#F6D1A1"/>
<stop offset="0.8" stop-color="#EEBD8D"/>
<stop offset="0.84" stop-color="#E9AF7F"/>
<stop offset="0.93" stop-color="#A57761"/>
<stop offset="0.94" stop-color="#AD7F64"/>
<stop offset="0.97" stop-color="#C3956B"/>
<stop offset="0.99" stop-color="#E7BA76"/>
<stop offset="1" stop-color="#F5C87B"/>
</radialGradient>
<radialGradient id="paint3_radial_122_650" cx="0" cy="0" r="1" gradientUnits="userSpaceOnUse" gradientTransform="translate(172.155 173.19) scale(140.04 139.985)">
<stop offset="0.37" stop-color="#FFADAC"/>
<stop offset="0.44" stop-color="#FD9FA3"/>
<stop offset="0.56" stop-color="#F67B8D"/>
<stop offset="0.72" stop-color="#EB4069"/>
<stop offset="0.88" stop-color="#E00041"/>
<stop offset="0.9" stop-color="#E10643"/>
<stop offset="0.92" stop-color="#E51748"/>
<stop offset="0.95" stop-color="#EB3351"/>
<stop offset="0.97" stop-color="#F45A5E"/>
<stop offset="1" stop-color="#FF8B6E"/>
</radialGradient>
<radialGradient id="paint4_radial_122_650" cx="0" cy="0" r="1" gradientUnits="userSpaceOnUse" gradientTransform="translate(172.155 173.19) scale(140.04 139.985)">
<stop offset="0.37" stop-color="#FFADAC"/>
<stop offset="0.44" stop-color="#FD9FA3"/>
<stop offset="0.56" stop-color="#F67B8D"/>
<stop offset="0.72" stop-color="#EB4069"/>
<stop offset="0.88" stop-color="#E00041"/>
<stop offset="0.9" stop-color="#E10643"/>
<stop offset="0.92" stop-color="#E51748"/>
<stop offset="0.95" stop-color="#EB3351"/>
<stop offset="0.97" stop-color="#F45A5E"/>
<stop offset="1" stop-color="#FF8B6E"/>
</radialGradient>
<radialGradient id="paint5_radial_122_650" cx="0" cy="0" r="1" gradientUnits="userSpaceOnUse" gradientTransform="translate(172.155 173.19) scale(140.04 139.985)">
<stop offset="0.37" stop-color="#FFADAC"/>
<stop offset="0.44" stop-color="#FD9FA3"/>
<stop offset="0.56" stop-color="#F67B8D"/>
<stop offset="0.72" stop-color="#EB4069"/>
<stop offset="0.88" stop-color="#E00041"/>
<stop offset="0.9" stop-color="#E10643"/>
<stop offset="0.92" stop-color="#E51748"/>
<stop offset="0.95" stop-color="#EB3351"/>
<stop offset="0.97" stop-color="#F45A5E"/>
<stop offset="1" stop-color="#FF8B6E"/>
</radialGradient>
<linearGradient id="paint6_linear_122_650" x1="173.96" y1="40.3145" x2="173.96" y2="-10.054" gradientUnits="userSpaceOnUse">
<stop stop-color="#FFFB90"/>
<stop offset="0.14" stop-color="#FBEA78"/>
<stop offset="0.24" stop-color="#F8DC65"/>
<stop offset="0.27" stop-color="#E6C758"/>
<stop offset="0.34" stop-color="#C5A041"/>
<stop offset="0.4" stop-color="#AD8330"/>
<stop offset="0.45" stop-color="#9E7226"/>
<stop offset="0.49" stop-color="#996C22"/>
<stop offset="0.52" stop-color="#9D7126"/>
<stop offset="0.56" stop-color="#AA8131"/>
<stop offset="0.6" stop-color="#BE9B42"/>
<stop offset="0.64" stop-color="#DABE5B"/>
<stop offset="0.69" stop-color="#FBE878"/>
<stop offset="0.77" stop-color="#FFFFAA"/>
<stop offset="0.83" stop-color="#FBE878"/>
<stop offset="1" stop-color="#A4631B"/>
</linearGradient>
<linearGradient id="paint7_linear_122_650" x1="144.046" y1="201.69" x2="209.589" y2="136.136" gradientUnits="userSpaceOnUse">
<stop stop-color="#FFFB90"/>
<stop offset="0.14" stop-color="#FBEA78"/>
<stop offset="0.24" stop-color="#F8DC65"/>
<stop offset="0.27" stop-color="#E6C758"/>
<stop offset="0.34" stop-color="#C5A041"/>
<stop offset="0.4" stop-color="#AD8330"/>
<stop offset="0.45" stop-color="#9E7226"/>
<stop offset="0.49" stop-color="#996C22"/>
<stop offset="0.52" stop-color="#9D7126"/>
<stop offset="0.56" stop-color="#AA8131"/>
<stop offset="0.6" stop-color="#BE9B42"/>
<stop offset="0.64" stop-color="#DABE5B"/>
<stop offset="0.69" stop-color="#FBE878"/>
<stop offset="0.77" stop-color="#FFFFAA"/>
<stop offset="0.83" stop-color="#FBE878"/>
<stop offset="1" stop-color="#A4631B"/>
</linearGradient>
<clipPath id="clip0_122_650">
<rect width="345" height="163" fill="white"/>
</clipPath>
</defs>
</svg>
