<svg width="23" height="28" viewBox="0 0 23 28" fill="none" xmlns="http://www.w3.org/2000/svg">
<path d="M9.60075 24.8183C14.0718 27.8259 22.6448 28 22.6448 28C22.6448 28 23.444 21.3107 22.6448 17.1823C21.5719 11.6394 20.2488 8.14177 16.4064 4.4557C11.5478 -0.205182 0.526602 0.00136913 0.526602 0.00136913C0.526602 0.00136913 -0.658253 7.56115 0.526602 12.0917C2.12382 18.199 4.73549 21.5456 9.60075 24.8183Z" fill="#A30000"/>
<path d="M9.00001 12.5C7.94859 15.2337 9.00001 20 9.00001 20C9.00001 20 13.7312 17.4144 15 14.5C16.2471 11.6355 15 6.5 15 6.5C15 6.5 10.1896 9.40716 9.00001 12.5Z" fill="white"/>
</svg>
